<?xml version="1.0" encoding="UTF-8" standalone="no"?>
<!DOCTYPE svg PUBLIC "-//W3C//DTD SVG 1.1//EN"
 "http://www.w3.org/Graphics/SVG/1.1/DTD/svg11.dtd">
<!-- Generated by graphviz version 2.43.0 (0)
 -->
<!-- Title: %3 Pages: 1 -->
<svg width="1083pt" height="244pt"
 viewBox="0.00 0.00 1082.50 244.00" xmlns="http://www.w3.org/2000/svg" xmlns:xlink="http://www.w3.org/1999/xlink">
<g id="graph0" class="graph" transform="scale(1 1) rotate(0) translate(4 240)">
<title>%3</title>
<!-- 1 -->
<g id="node1" class="node">
<title>1</title>
<polygon fill="#ff0000" stroke="#ff0000" points="650.5,-52 560.5,-52 560.5,0 650.5,0 650.5,-52"/>
<text text-anchor="middle" x="605.5" y="-40" font-family="Arial" font-size="10.00" fill="#ffffff">getPlanePosition</text>
<text text-anchor="middle" x="605.5" y="-29" font-family="Arial" font-size="10.00" fill="#ffffff">100.00%</text>
<text text-anchor="middle" x="605.5" y="-18" font-family="Arial" font-size="10.00" fill="#ffffff">(100.00%)</text>
<text text-anchor="middle" x="605.5" y="-7" font-family="Arial" font-size="10.00" fill="#ffffff">8383×</text>
</g>
<!-- 2 -->
<g id="node2" class="node">
<title>2</title>
<polygon fill="#ff0000" stroke="#ff0000" points="61,-144 0,-144 0,-92 61,-92 61,-144"/>
<text text-anchor="middle" x="30.5" y="-132" font-family="Arial" font-size="10.00" fill="#ffffff">getAMax</text>
<text text-anchor="middle" x="30.5" y="-121" font-family="Arial" font-size="10.00" fill="#ffffff">100.00%</text>
<text text-anchor="middle" x="30.5" y="-110" font-family="Arial" font-size="10.00" fill="#ffffff">(100.00%)</text>
<text text-anchor="middle" x="30.5" y="-99" font-family="Arial" font-size="10.00" fill="#ffffff">400×</text>
</g>
<!-- 3 -->
<g id="node3" class="node">
<title>3</title>
<polygon fill="#ff0000" stroke="#ff0000" points="131,-144 70,-144 70,-92 131,-92 131,-144"/>
<text text-anchor="middle" x="100.5" y="-132" font-family="Arial" font-size="10.00" fill="#ffffff">getAMin</text>
<text text-anchor="middle" x="100.5" y="-121" font-family="Arial" font-size="10.00" fill="#ffffff">100.00%</text>
<text text-anchor="middle" x="100.5" y="-110" font-family="Arial" font-size="10.00" fill="#ffffff">(100.00%)</text>
<text text-anchor="middle" x="100.5" y="-99" font-family="Arial" font-size="10.00" fill="#ffffff">400×</text>
</g>
<!-- 4 -->
<g id="node4" class="node">
<title>4</title>
<polygon fill="#ff0000" stroke="#ff0000" points="222.5,-144 140.5,-144 140.5,-92 222.5,-92 222.5,-144"/>
<text text-anchor="middle" x="181.5" y="-132" font-family="Arial" font-size="10.00" fill="#ffffff">getParallelAxis</text>
<text text-anchor="middle" x="181.5" y="-121" font-family="Arial" font-size="10.00" fill="#ffffff">100.00%</text>
<text text-anchor="middle" x="181.5" y="-110" font-family="Arial" font-size="10.00" fill="#ffffff">(100.00%)</text>
<text text-anchor="middle" x="181.5" y="-99" font-family="Arial" font-size="10.00" fill="#ffffff">400×</text>
</g>
<!-- 5 -->
<g id="node5" class="node">
<title>5</title>
<polygon fill="#ff0000" stroke="#ff0000" points="319,-144 232,-144 232,-92 319,-92 319,-144"/>
<text text-anchor="middle" x="275.5" y="-132" font-family="Arial" font-size="10.00" fill="#ffffff">getPixelPosition</text>
<text text-anchor="middle" x="275.5" y="-121" font-family="Arial" font-size="10.00" fill="#ffffff">100.00%</text>
<text text-anchor="middle" x="275.5" y="-110" font-family="Arial" font-size="10.00" fill="#ffffff">(100.00%)</text>
<text text-anchor="middle" x="275.5" y="-99" font-family="Arial" font-size="10.00" fill="#ffffff">400×</text>
</g>
<!-- 6 -->
<g id="node6" class="node">
<title>6</title>
<polygon fill="#ff0000" stroke="#ff0000" points="439,-144 328,-144 328,-92 439,-92 439,-144"/>
<text text-anchor="middle" x="383.5" y="-132" font-family="Arial" font-size="10.00" fill="#ffffff">getSidesIntersections</text>
<text text-anchor="middle" x="383.5" y="-121" font-family="Arial" font-size="10.00" fill="#ffffff">100.00%</text>
<text text-anchor="middle" x="383.5" y="-110" font-family="Arial" font-size="10.00" fill="#ffffff">(100.00%)</text>
<text text-anchor="middle" x="383.5" y="-99" font-family="Arial" font-size="10.00" fill="#ffffff">400×</text>
</g>
<!-- 6&#45;&gt;1 -->
<g id="edge1" class="edge">
<title>6&#45;&gt;1</title>
<path fill="none" stroke="#ff0000" stroke-width="4" d="M430.92,-91.98C451.4,-81.68 475.82,-70.07 498.5,-61 515.22,-54.31 533.8,-48.03 550.73,-42.72"/>
<polygon fill="#ff0000" stroke="#ff0000" stroke-width="4" points="551.95,-46.01 560.48,-39.71 549.89,-39.32 551.95,-46.01"/>
<text text-anchor="middle" x="518" y="-75" font-family="Arial" font-size="10.00" fill="#ff0000">100.00%</text>
<text text-anchor="middle" x="518" y="-64" font-family="Arial" font-size="10.00" fill="#ff0000">2400×</text>
</g>
<!-- 7 -->
<g id="node7" class="node">
<title>7</title>
<polygon fill="#ff0000" stroke="#ff0000" points="549,-144 448,-144 448,-92 549,-92 549,-144"/>
<text text-anchor="middle" x="498.5" y="-132" font-family="Arial" font-size="10.00" fill="#ffffff">computeAbsorption</text>
<text text-anchor="middle" x="498.5" y="-121" font-family="Arial" font-size="10.00" fill="#ffffff">100.00%</text>
<text text-anchor="middle" x="498.5" y="-110" font-family="Arial" font-size="10.00" fill="#ffffff">(100.00%)</text>
<text text-anchor="middle" x="498.5" y="-99" font-family="Arial" font-size="10.00" fill="#ffffff">215×</text>
</g>
<!-- 7&#45;&gt;1 -->
<g id="edge2" class="edge">
<title>7&#45;&gt;1</title>
<path fill="none" stroke="#ff0000" stroke-width="4" d="M528.31,-91.93C540.49,-81.68 554.74,-69.7 567.65,-58.84"/>
<polygon fill="#ff0000" stroke="#ff0000" stroke-width="4" points="570.08,-61.36 575.48,-52.25 565.58,-56.01 570.08,-61.36"/>
<text text-anchor="middle" x="585" y="-75" font-family="Arial" font-size="10.00" fill="#ff0000">100.00%</text>
<text text-anchor="middle" x="585" y="-64" font-family="Arial" font-size="10.00" fill="#ff0000">4248×</text>
</g>
<!-- 8 -->
<g id="node8" class="node">
<title>8</title>
<polygon fill="#ff0000" stroke="#ff0000" points="674.5,-144 558.5,-144 558.5,-92 674.5,-92 674.5,-144"/>
<text text-anchor="middle" x="616.5" y="-132" font-family="Arial" font-size="10.00" fill="#ffffff">fastMergeIntersections</text>
<text text-anchor="middle" x="616.5" y="-121" font-family="Arial" font-size="10.00" fill="#ffffff">100.00%</text>
<text text-anchor="middle" x="616.5" y="-110" font-family="Arial" font-size="10.00" fill="#ffffff">(100.00%)</text>
<text text-anchor="middle" x="616.5" y="-99" font-family="Arial" font-size="10.00" fill="#ffffff">215×</text>
</g>
<!-- 9 -->
<g id="node9" class="node">
<title>9</title>
<polygon fill="#ff0000" stroke="#ff0000" points="781.5,-144 683.5,-144 683.5,-92 781.5,-92 781.5,-144"/>
<text text-anchor="middle" x="732.5" y="-132" font-family="Arial" font-size="10.00" fill="#ffffff">getAllIntersections</text>
<text text-anchor="middle" x="732.5" y="-121" font-family="Arial" font-size="10.00" fill="#ffffff">100.00%</text>
<text text-anchor="middle" x="732.5" y="-110" font-family="Arial" font-size="10.00" fill="#ffffff">(100.00%)</text>
<text text-anchor="middle" x="732.5" y="-99" font-family="Arial" font-size="10.00" fill="#ffffff">215×</text>
</g>
<!-- 9&#45;&gt;1 -->
<g id="edge3" class="edge">
<title>9&#45;&gt;1</title>
<path fill="none" stroke="#ff0000" stroke-width="4" d="M697.12,-91.93C682.38,-81.49 665.11,-69.25 649.56,-58.23"/>
<polygon fill="#ff0000" stroke="#ff0000" stroke-width="4" points="651.31,-55.17 641.13,-52.25 647.26,-60.89 651.31,-55.17"/>
<text text-anchor="middle" x="704" y="-75" font-family="Arial" font-size="10.00" fill="#ff0000">100.00%</text>
<text text-anchor="middle" x="704" y="-64" font-family="Arial" font-size="10.00" fill="#ff0000">445×</text>
</g>
<!-- 10 -->
<g id="node10" class="node">
<title>10</title>
<polygon fill="#ff0000" stroke="#ff0000" points="884.5,-144 790.5,-144 790.5,-92 884.5,-92 884.5,-144"/>
<text text-anchor="middle" x="837.5" y="-132" font-family="Arial" font-size="10.00" fill="#ffffff">getPlanesRanges</text>
<text text-anchor="middle" x="837.5" y="-121" font-family="Arial" font-size="10.00" fill="#ffffff">100.00%</text>
<text text-anchor="middle" x="837.5" y="-110" font-family="Arial" font-size="10.00" fill="#ffffff">(100.00%)</text>
<text text-anchor="middle" x="837.5" y="-99" font-family="Arial" font-size="10.00" fill="#ffffff">215×</text>
</g>
<!-- 10&#45;&gt;1 -->
<g id="edge4" class="edge">
<title>10&#45;&gt;1</title>
<path fill="none" stroke="#ff0000" stroke-width="4" d="M792.33,-91.99C772.26,-81.52 748.1,-69.76 725.5,-61 704.68,-52.93 681.16,-45.84 660.5,-40.26"/>
<polygon fill="#ff0000" stroke="#ff0000" stroke-width="4" points="661.17,-36.81 650.61,-37.64 659.38,-43.58 661.17,-36.81"/>
<text text-anchor="middle" x="793" y="-75" font-family="Arial" font-size="10.00" fill="#ff0000">100.00%</text>
<text text-anchor="middle" x="793" y="-64" font-family="Arial" font-size="10.00" fill="#ff0000">1290×</text>
</g>
<!-- 11 -->
<g id="node11" class="node">
<title>11</title>
<polygon fill="#ff0000" stroke="#ff0000" points="969.5,-144 893.5,-144 893.5,-92 969.5,-92 969.5,-144"/>
<text text-anchor="middle" x="931.5" y="-132" font-family="Arial" font-size="10.00" fill="#ffffff">isArraySorted</text>
<text text-anchor="middle" x="931.5" y="-121" font-family="Arial" font-size="10.00" fill="#ffffff">100.00%</text>
<text text-anchor="middle" x="931.5" y="-110" font-family="Arial" font-size="10.00" fill="#ffffff">(100.00%)</text>
<text text-anchor="middle" x="931.5" y="-99" font-family="Arial" font-size="10.00" fill="#ffffff">215×</text>
</g>
<!-- 12 -->
<g id="node12" class="node">
<title>12</title>
<polygon fill="#ff0000" stroke="#ff0000" points="629,-236 568,-236 568,-184 629,-184 629,-236"/>
<text text-anchor="middle" x="598.5" y="-224" font-family="Arial" font-size="10.00" fill="#ffffff">readPGM</text>
<text text-anchor="middle" x="598.5" y="-213" font-family="Arial" font-size="10.00" fill="#ffffff">100.00%</text>
<text text-anchor="middle" x="598.5" y="-202" font-family="Arial" font-size="10.00" fill="#ffffff">(100.00%)</text>
<text text-anchor="middle" x="598.5" y="-191" font-family="Arial" font-size="10.00" fill="#ffffff">2×</text>
</g>
<!-- 13 -->
<g id="node13" class="node">
<title>13</title>
<polygon fill="#ff0000" stroke="#ff0000" points="558.5,-236 438.5,-236 438.5,-184 558.5,-184 558.5,-236"/>
<text text-anchor="middle" x="498.5" y="-224" font-family="Arial" font-size="10.00" fill="#ffffff">computeBackProjection</text>
<text text-anchor="middle" x="498.5" y="-213" font-family="Arial" font-size="10.00" fill="#ffffff">100.00%</text>
<text text-anchor="middle" x="498.5" y="-202" font-family="Arial" font-size="10.00" fill="#ffffff">(100.00%)</text>
<text text-anchor="middle" x="498.5" y="-191" font-family="Arial" font-size="10.00" fill="#ffffff">1×</text>
</g>
<!-- 13&#45;&gt;2 -->
<g id="edge5" class="edge">
<title>13&#45;&gt;2</title>
<path fill="none" stroke="#ff0000" stroke-width="4" d="M438.32,-207.29C345.25,-204.05 171.02,-195.4 112.5,-175 96.46,-169.41 80.62,-159.82 67.2,-150.15"/>
<polygon fill="#ff0000" stroke="#ff0000" stroke-width="4" points="69.28,-147.33 59.17,-144.15 65.09,-152.94 69.28,-147.33"/>
<text text-anchor="middle" x="132" y="-167" font-family="Arial" font-size="10.00" fill="#ff0000">100.00%</text>
<text text-anchor="middle" x="132" y="-156" font-family="Arial" font-size="10.00" fill="#ff0000">400×</text>
</g>
<!-- 13&#45;&gt;3 -->
<g id="edge6" class="edge">
<title>13&#45;&gt;3</title>
<path fill="none" stroke="#ff0000" stroke-width="4" d="M438.24,-207.17C378.51,-204.15 284.84,-196.16 206.5,-175 176.38,-166.86 167.14,-161.97 140.17,-146.58"/>
<polygon fill="#ff0000" stroke="#ff0000" stroke-width="4" points="141.61,-143.37 131.19,-141.45 138.14,-149.44 141.61,-143.37"/>
<text text-anchor="middle" x="226" y="-167" font-family="Arial" font-size="10.00" fill="#ff0000">100.00%</text>
<text text-anchor="middle" x="226" y="-156" font-family="Arial" font-size="10.00" fill="#ff0000">400×</text>
</g>
<!-- 13&#45;&gt;4 -->
<g id="edge7" class="edge">
<title>13&#45;&gt;4</title>
<path fill="none" stroke="#ff0000" stroke-width="4" d="M438.22,-202.19C398.8,-196.86 346.48,-188.12 301.5,-175 270.34,-165.91 261.23,-160.46 231.86,-146.09"/>
<polygon fill="#ff0000" stroke="#ff0000" stroke-width="4" points="233.05,-142.78 222.52,-141.56 229.99,-149.08 233.05,-142.78"/>
<text text-anchor="middle" x="321" y="-167" font-family="Arial" font-size="10.00" fill="#ff0000">100.00%</text>
<text text-anchor="middle" x="321" y="-156" font-family="Arial" font-size="10.00" fill="#ff0000">400×</text>
</g>
<!-- 13&#45;&gt;5 -->
<g id="edge8" class="edge">
<title>13&#45;&gt;5</title>
<path fill="none" stroke="#ff0000" stroke-width="4" d="M438.3,-192.69C421.36,-187.57 403.04,-181.53 386.5,-175 360.42,-164.7 352.82,-159.27 328.22,-146.45"/>
<polygon fill="#ff0000" stroke="#ff0000" stroke-width="4" points="329.66,-143.25 319.17,-141.8 326.46,-149.48 329.66,-143.25"/>
<text text-anchor="middle" x="406" y="-167" font-family="Arial" font-size="10.00" fill="#ff0000">100.00%</text>
<text text-anchor="middle" x="406" y="-156" font-family="Arial" font-size="10.00" fill="#ff0000">400×</text>
</g>
<!-- 13&#45;&gt;6 -->
<g id="edge9" class="edge">
<title>13&#45;&gt;6</title>
<path fill="none" stroke="#ff0000" stroke-width="4" d="M466.47,-183.93C453.24,-173.58 437.77,-161.47 423.79,-150.53"/>
<polygon fill="#ff0000" stroke="#ff0000" stroke-width="4" points="425.79,-147.65 415.76,-144.25 421.48,-153.17 425.79,-147.65"/>
<text text-anchor="middle" x="475" y="-167" font-family="Arial" font-size="10.00" fill="#ff0000">100.00%</text>
<text text-anchor="middle" x="475" y="-156" font-family="Arial" font-size="10.00" fill="#ff0000">400×</text>
</g>
<!-- 13&#45;&gt;7 -->
<g id="edge10" class="edge">
<title>13&#45;&gt;7</title>
<path fill="none" stroke="#ff0000" stroke-width="4" d="M498.5,-183.93C498.5,-174.74 498.5,-164.17 498.5,-154.25"/>
<polygon fill="#ff0000" stroke="#ff0000" stroke-width="4" points="502,-154.25 498.5,-144.25 495,-154.25 502,-154.25"/>
<text text-anchor="middle" x="518" y="-167" font-family="Arial" font-size="10.00" fill="#ff0000">100.00%</text>
<text text-anchor="middle" x="518" y="-156" font-family="Arial" font-size="10.00" fill="#ff0000">215×</text>
</g>
<!-- 13&#45;&gt;8 -->
<g id="edge11" class="edge">
<title>13&#45;&gt;8</title>
<path fill="none" stroke="#ff0000" stroke-width="4" d="M531.37,-183.93C544.94,-173.58 560.81,-161.47 575.16,-150.53"/>
<polygon fill="#ff0000" stroke="#ff0000" stroke-width="4" points="577.57,-153.1 583.4,-144.25 573.32,-147.53 577.57,-153.1"/>
<text text-anchor="middle" x="592" y="-167" font-family="Arial" font-size="10.00" fill="#ff0000">100.00%</text>
<text text-anchor="middle" x="592" y="-156" font-family="Arial" font-size="10.00" fill="#ff0000">215×</text>
</g>
<!-- 13&#45;&gt;9 -->
<g id="edge12" class="edge">
<title>13&#45;&gt;9</title>
<path fill="none" stroke="#ff0000" stroke-width="4" d="M558.57,-185.44C560.22,-184.94 561.87,-184.46 563.5,-184 585.25,-177.92 591.99,-181.87 613.5,-175 635,-168.14 657.64,-158.23 677.33,-148.64"/>
<polygon fill="#ff0000" stroke="#ff0000" stroke-width="4" points="679.04,-151.7 686.45,-144.13 675.93,-145.43 679.04,-151.7"/>
<text text-anchor="middle" x="687" y="-167" font-family="Arial" font-size="10.00" fill="#ff0000">100.00%</text>
<text text-anchor="middle" x="687" y="-156" font-family="Arial" font-size="10.00" fill="#ff0000">215×</text>
</g>
<!-- 13&#45;&gt;10 -->
<g id="edge13" class="edge">
<title>13&#45;&gt;10</title>
<path fill="none" stroke="#ff0000" stroke-width="4" d="M558.5,-185.18C560.18,-184.76 561.85,-184.36 563.5,-184 626.59,-170.25 645.52,-189.24 708.5,-175 741.39,-167.56 750.29,-160.26 780.96,-146.08"/>
<polygon fill="#ff0000" stroke="#ff0000" stroke-width="4" points="782.56,-149.2 790.23,-141.89 779.68,-142.82 782.56,-149.2"/>
<text text-anchor="middle" x="785" y="-167" font-family="Arial" font-size="10.00" fill="#ff0000">100.00%</text>
<text text-anchor="middle" x="785" y="-156" font-family="Arial" font-size="10.00" fill="#ff0000">215×</text>
</g>
<!-- 13&#45;&gt;11 -->
<g id="edge14" class="edge">
<title>13&#45;&gt;11</title>
<path fill="none" stroke="#ff0000" stroke-width="4" d="M558.85,-185.04C560.41,-184.66 561.96,-184.32 563.5,-184 669.37,-162.31 700.56,-196.39 806.5,-175 841.56,-167.92 851.7,-161.82 884,-146.12"/>
<polygon fill="#ff0000" stroke="#ff0000" stroke-width="4" points="885.73,-149.17 893.22,-141.67 882.69,-142.86 885.73,-149.17"/>
<text text-anchor="middle" x="889" y="-167" font-family="Arial" font-size="10.00" fill="#ff0000">100.00%</text>
<text text-anchor="middle" x="889" y="-156" font-family="Arial" font-size="10.00" fill="#ff0000">215×</text>
</g>
<!-- 14 -->
<g id="node14" class="node">
<title>14</title>
<polygon fill="#ff0000" stroke="#ff0000" points="1074.5,-144 978.5,-144 978.5,-92 1074.5,-92 1074.5,-144"/>
<text text-anchor="middle" x="1026.5" y="-132" font-family="Arial" font-size="10.00" fill="#ffffff">getSourcePosition</text>
<text text-anchor="middle" x="1026.5" y="-121" font-family="Arial" font-size="10.00" fill="#ffffff">100.00%</text>
<text text-anchor="middle" x="1026.5" y="-110" font-family="Arial" font-size="10.00" fill="#ffffff">(100.00%)</text>
<text text-anchor="middle" x="1026.5" y="-99" font-family="Arial" font-size="10.00" fill="#ffffff">1×</text>
</g>
<!-- 13&#45;&gt;14 -->
<g id="edge15" class="edge">
<title>13&#45;&gt;14</title>
<path fill="none" stroke="#ff0000" stroke-width="4" d="M558.85,-185.02C560.41,-184.65 561.96,-184.31 563.5,-184 639.15,-168.94 835.53,-193.17 910.5,-175 933.21,-169.49 956.71,-159.15 976.57,-148.84"/>
<polygon fill="#ff0000" stroke="#ff0000" stroke-width="4" points="978.24,-151.91 985.42,-144.12 974.95,-145.74 978.24,-151.91"/>
<text text-anchor="middle" x="986" y="-167" font-family="Arial" font-size="10.00" fill="#ff0000">100.00%</text>
<text text-anchor="middle" x="986" y="-156" font-family="Arial" font-size="10.00" fill="#ff0000">1×</text>
</g>
<!-- 15 -->
<g id="node15" class="node">
<title>15</title>
<polygon fill="#ff0000" stroke="#ff0000" points="699,-236 638,-236 638,-184 699,-184 699,-236"/>
<text text-anchor="middle" x="668.5" y="-224" font-family="Arial" font-size="10.00" fill="#ffffff">initTables</text>
<text text-anchor="middle" x="668.5" y="-213" font-family="Arial" font-size="10.00" fill="#ffffff">100.00%</text>
<text text-anchor="middle" x="668.5" y="-202" font-family="Arial" font-size="10.00" fill="#ffffff">(100.00%)</text>
<text text-anchor="middle" x="668.5" y="-191" font-family="Arial" font-size="10.00" fill="#ffffff">1×</text>
</g>
<!-- 16 -->
<g id="node16" class="node">
<title>16</title>
<polygon fill="#ff0000" stroke="#ff0000" points="778.5,-236 708.5,-236 708.5,-184 778.5,-184 778.5,-236"/>
<text text-anchor="middle" x="743.5" y="-224" font-family="Arial" font-size="10.00" fill="#ffffff">writeVolume</text>
<text text-anchor="middle" x="743.5" y="-213" font-family="Arial" font-size="10.00" fill="#ffffff">100.00%</text>
<text text-anchor="middle" x="743.5" y="-202" font-family="Arial" font-size="10.00" fill="#ffffff">(100.00%)</text>
<text text-anchor="middle" x="743.5" y="-191" font-family="Arial" font-size="10.00" fill="#ffffff">1×</text>
</g>
</g>
</svg>
