<?xml version="1.0" encoding="UTF-8" standalone="no"?>
<!DOCTYPE svg PUBLIC "-//W3C//DTD SVG 1.1//EN"
 "http://www.w3.org/Graphics/SVG/1.1/DTD/svg11.dtd">
<!-- Generated by graphviz version 2.43.0 (0)
 -->
<!-- Title: %3 Pages: 1 -->
<svg width="987pt" height="325pt"
 viewBox="0.00 0.00 986.50 325.00" xmlns="http://www.w3.org/2000/svg" xmlns:xlink="http://www.w3.org/1999/xlink">
<g id="graph0" class="graph" transform="scale(1 1) rotate(0) translate(4 321)">
<title>%3</title>
<!-- 1 -->
<g id="node1" class="node">
<title>1</title>
<polygon fill="#ff0000" stroke="#ff0000" points="589.5,-236 469.5,-236 469.5,-184 589.5,-184 589.5,-236"/>
<text text-anchor="middle" x="529.5" y="-224" font-family="Arial" font-size="10.00" fill="#ffffff">computeBackProjection</text>
<text text-anchor="middle" x="529.5" y="-213" font-family="Arial" font-size="10.00" fill="#ffffff">100.00%</text>
<text text-anchor="middle" x="529.5" y="-202" font-family="Arial" font-size="10.00" fill="#ffffff">(7.69%)</text>
<text text-anchor="middle" x="529.5" y="-191" font-family="Arial" font-size="10.00" fill="#ffffff">7×</text>
</g>
<!-- 3 -->
<g id="node2" class="node">
<title>3</title>
<polygon fill="#0ab024" stroke="#0ab024" points="101,-144 0,-144 0,-92 101,-92 101,-144"/>
<text text-anchor="middle" x="50.5" y="-132" font-family="Arial" font-size="10.00" fill="#ffffff">computeAbsorption</text>
<text text-anchor="middle" x="50.5" y="-121" font-family="Arial" font-size="10.00" fill="#ffffff">46.15%</text>
<text text-anchor="middle" x="50.5" y="-110" font-family="Arial" font-size="10.00" fill="#ffffff">(46.15%)</text>
<text text-anchor="middle" x="50.5" y="-99" font-family="Arial" font-size="10.00" fill="#ffffff">152470×</text>
</g>
<!-- 1&#45;&gt;3 -->
<g id="edge1" class="edge">
<title>1&#45;&gt;3</title>
<path fill="none" stroke="#0ab024" stroke-width="1.85" d="M469.33,-207.22C401.57,-204.22 288.49,-196.22 193.5,-175 164.35,-168.49 133.34,-156.96 107.67,-146.04"/>
<polygon fill="#0ab024" stroke="#0ab024" stroke-width="1.85" points="108.45,-143.79 101.26,-143.28 106.57,-148.16 108.45,-143.79"/>
<text text-anchor="middle" x="212.5" y="-167" font-family="Arial" font-size="10.00" fill="#0ab024">46.15%</text>
<text text-anchor="middle" x="212.5" y="-156" font-family="Arial" font-size="10.00" fill="#0ab024">152470×</text>
</g>
<!-- 4 -->
<g id="node3" class="node">
<title>4</title>
<polygon fill="#0c8791" stroke="#0c8791" points="208.5,-144 110.5,-144 110.5,-92 208.5,-92 208.5,-144"/>
<text text-anchor="middle" x="159.5" y="-132" font-family="Arial" font-size="10.00" fill="#ffffff">getAllIntersections</text>
<text text-anchor="middle" x="159.5" y="-121" font-family="Arial" font-size="10.00" fill="#ffffff">23.08%</text>
<text text-anchor="middle" x="159.5" y="-110" font-family="Arial" font-size="10.00" fill="#ffffff">(23.08%)</text>
<text text-anchor="middle" x="159.5" y="-99" font-family="Arial" font-size="10.00" fill="#ffffff">152470×</text>
</g>
<!-- 1&#45;&gt;4 -->
<g id="edge2" class="edge">
<title>1&#45;&gt;4</title>
<path fill="none" stroke="#0c8791" stroke-width="0.92" d="M469.29,-204.41C420.48,-199.75 350.24,-190.88 290.5,-175 256,-165.83 247.44,-159.42 213.3,-144.35"/>
<polygon fill="#0c8791" stroke="#0c8791" stroke-width="0.92" points="213.61,-142.65 208.54,-142.26 212.26,-145.73 213.61,-142.65"/>
<text text-anchor="middle" x="309.5" y="-167" font-family="Arial" font-size="10.00" fill="#0c8791">23.08%</text>
<text text-anchor="middle" x="309.5" y="-156" font-family="Arial" font-size="10.00" fill="#0c8791">152470×</text>
</g>
<!-- 5 -->
<g id="node4" class="node">
<title>5</title>
<polygon fill="#0c5887" stroke="#0c5887" points="333.5,-144 217.5,-144 217.5,-92 333.5,-92 333.5,-144"/>
<text text-anchor="middle" x="275.5" y="-132" font-family="Arial" font-size="10.00" fill="#ffffff">fastMergeIntersections</text>
<text text-anchor="middle" x="275.5" y="-121" font-family="Arial" font-size="10.00" fill="#ffffff">15.38%</text>
<text text-anchor="middle" x="275.5" y="-110" font-family="Arial" font-size="10.00" fill="#ffffff">(15.38%)</text>
<text text-anchor="middle" x="275.5" y="-99" font-family="Arial" font-size="10.00" fill="#ffffff">152470×</text>
</g>
<!-- 1&#45;&gt;5 -->
<g id="edge3" class="edge">
<title>1&#45;&gt;5</title>
<path fill="none" stroke="#0c5887" stroke-width="0.62" d="M469.45,-199.97C440.47,-194.55 405.56,-186.45 375.5,-175 355.63,-167.43 334.92,-156.42 317.53,-146.16"/>
<polygon fill="#0c5887" stroke="#0c5887" stroke-width="0.62" points="318.15,-144.94 314.1,-144.12 316.76,-147.29 318.15,-144.94"/>
<text text-anchor="middle" x="394.5" y="-167" font-family="Arial" font-size="10.00" fill="#0c5887">15.38%</text>
<text text-anchor="middle" x="394.5" y="-156" font-family="Arial" font-size="10.00" fill="#0c5887">152470×</text>
</g>
<!-- 6 -->
<g id="node5" class="node">
<title>6</title>
<polygon fill="#0d1d78" stroke="#0d1d78" points="398.5,-144 342.5,-144 342.5,-92 398.5,-92 398.5,-144"/>
<text text-anchor="middle" x="370.5" y="-132" font-family="Arial" font-size="10.00" fill="#ffffff">getAMax</text>
<text text-anchor="middle" x="370.5" y="-121" font-family="Arial" font-size="10.00" fill="#ffffff">3.85%</text>
<text text-anchor="middle" x="370.5" y="-110" font-family="Arial" font-size="10.00" fill="#ffffff">(3.85%)</text>
<text text-anchor="middle" x="370.5" y="-99" font-family="Arial" font-size="10.00" fill="#ffffff">280000×</text>
</g>
<!-- 1&#45;&gt;6 -->
<g id="edge4" class="edge">
<title>1&#45;&gt;6</title>
<path fill="none" stroke="#0d1d78" stroke-width="0.5" d="M469.43,-186.85C461.23,-183.21 453.05,-179.23 445.5,-175 425.25,-163.67 422.08,-157.89 403.5,-144 402.9,-143.55 402.29,-143.09 401.67,-142.63"/>
<polygon fill="#0d1d78" stroke="#0d1d78" stroke-width="0.5" points="402.1,-141.42 398.57,-140.3 400.63,-143.38 402.1,-141.42"/>
<text text-anchor="middle" x="464.5" y="-167" font-family="Arial" font-size="10.00" fill="#0d1d78">3.85%</text>
<text text-anchor="middle" x="464.5" y="-156" font-family="Arial" font-size="10.00" fill="#0d1d78">280000×</text>
</g>
<!-- 7 -->
<g id="node6" class="node">
<title>7</title>
<polygon fill="#0d1d78" stroke="#0d1d78" points="519,-144 408,-144 408,-92 519,-92 519,-144"/>
<text text-anchor="middle" x="463.5" y="-132" font-family="Arial" font-size="10.00" fill="#ffffff">getSidesIntersections</text>
<text text-anchor="middle" x="463.5" y="-121" font-family="Arial" font-size="10.00" fill="#ffffff">3.85%</text>
<text text-anchor="middle" x="463.5" y="-110" font-family="Arial" font-size="10.00" fill="#ffffff">(3.85%)</text>
<text text-anchor="middle" x="463.5" y="-99" font-family="Arial" font-size="10.00" fill="#ffffff">280000×</text>
</g>
<!-- 1&#45;&gt;7 -->
<g id="edge5" class="edge">
<title>1&#45;&gt;7</title>
<path fill="none" stroke="#0d1d78" stroke-width="0.5" d="M506.47,-183.73C504.05,-180.84 501.68,-177.89 499.5,-175 492.92,-166.29 486.3,-156.39 480.56,-147.36"/>
<polygon fill="#0d1d78" stroke="#0d1d78" stroke-width="0.5" points="481.39,-146.39 478.49,-144.08 479.32,-147.69 481.39,-146.39"/>
<text text-anchor="middle" x="518.5" y="-167" font-family="Arial" font-size="10.00" fill="#0d1d78">3.85%</text>
<text text-anchor="middle" x="518.5" y="-156" font-family="Arial" font-size="10.00" fill="#0d1d78">280000×</text>
</g>
<!-- 9 -->
<g id="node7" class="node">
<title>9</title>
<polygon fill="#0d0d73" stroke="#0d0d73" points="582.5,-144 528.5,-144 528.5,-92 582.5,-92 582.5,-144"/>
<text text-anchor="middle" x="555.5" y="-132" font-family="Arial" font-size="10.00" fill="#ffffff">getAMin</text>
<text text-anchor="middle" x="555.5" y="-121" font-family="Arial" font-size="10.00" fill="#ffffff">0.00%</text>
<text text-anchor="middle" x="555.5" y="-110" font-family="Arial" font-size="10.00" fill="#ffffff">(0.00%)</text>
<text text-anchor="middle" x="555.5" y="-99" font-family="Arial" font-size="10.00" fill="#ffffff">280000×</text>
</g>
<!-- 1&#45;&gt;9 -->
<g id="edge6" class="edge">
<title>1&#45;&gt;9</title>
<path fill="none" stroke="#0d0d73" stroke-width="0.5" d="M536.74,-183.93C539.98,-172.71 543.82,-159.42 547.18,-147.8"/>
<polygon fill="#0d0d73" stroke="#0d0d73" stroke-width="0.5" points="548.41,-147.95 548.21,-144.25 546.06,-147.27 548.41,-147.95"/>
<text text-anchor="middle" x="565.5" y="-167" font-family="Arial" font-size="10.00" fill="#0d0d73">0.00%</text>
<text text-anchor="middle" x="565.5" y="-156" font-family="Arial" font-size="10.00" fill="#0d0d73">280000×</text>
</g>
<!-- 10 -->
<g id="node8" class="node">
<title>10</title>
<polygon fill="#0d0d73" stroke="#0d0d73" points="673.5,-144 591.5,-144 591.5,-92 673.5,-92 673.5,-144"/>
<text text-anchor="middle" x="632.5" y="-132" font-family="Arial" font-size="10.00" fill="#ffffff">getParallelAxis</text>
<text text-anchor="middle" x="632.5" y="-121" font-family="Arial" font-size="10.00" fill="#ffffff">0.00%</text>
<text text-anchor="middle" x="632.5" y="-110" font-family="Arial" font-size="10.00" fill="#ffffff">(0.00%)</text>
<text text-anchor="middle" x="632.5" y="-99" font-family="Arial" font-size="10.00" fill="#ffffff">280000×</text>
</g>
<!-- 1&#45;&gt;10 -->
<g id="edge7" class="edge">
<title>1&#45;&gt;10</title>
<path fill="none" stroke="#0d0d73" stroke-width="0.5" d="M575,-183.86C579.02,-181.05 582.92,-178.08 586.5,-175 596.01,-166.82 605.09,-156.52 612.63,-146.99"/>
<polygon fill="#0d0d73" stroke="#0d0d73" stroke-width="0.5" points="613.73,-147.57 614.92,-144.06 611.8,-146.06 613.73,-147.57"/>
<text text-anchor="middle" x="626.5" y="-167" font-family="Arial" font-size="10.00" fill="#0d0d73">0.00%</text>
<text text-anchor="middle" x="626.5" y="-156" font-family="Arial" font-size="10.00" fill="#0d0d73">280000×</text>
</g>
<!-- 11 -->
<g id="node9" class="node">
<title>11</title>
<polygon fill="#0d0d73" stroke="#0d0d73" points="770,-144 683,-144 683,-92 770,-92 770,-144"/>
<text text-anchor="middle" x="726.5" y="-132" font-family="Arial" font-size="10.00" fill="#ffffff">getPixelPosition</text>
<text text-anchor="middle" x="726.5" y="-121" font-family="Arial" font-size="10.00" fill="#ffffff">0.00%</text>
<text text-anchor="middle" x="726.5" y="-110" font-family="Arial" font-size="10.00" fill="#ffffff">(0.00%)</text>
<text text-anchor="middle" x="726.5" y="-99" font-family="Arial" font-size="10.00" fill="#ffffff">280000×</text>
</g>
<!-- 1&#45;&gt;11 -->
<g id="edge8" class="edge">
<title>1&#45;&gt;11</title>
<path fill="none" stroke="#0d0d73" stroke-width="0.5" d="M589.68,-185.09C590.96,-184.71 592.23,-184.35 593.5,-184 616.96,-177.54 625,-184.27 647.5,-175 664.26,-168.09 680.92,-157.07 694.59,-146.62"/>
<polygon fill="#0d0d73" stroke="#0d0d73" stroke-width="0.5" points="695.62,-147.37 697.64,-144.26 694.12,-145.43 695.62,-147.37"/>
<text text-anchor="middle" x="703.5" y="-167" font-family="Arial" font-size="10.00" fill="#0d0d73">0.00%</text>
<text text-anchor="middle" x="703.5" y="-156" font-family="Arial" font-size="10.00" fill="#0d0d73">280000×</text>
</g>
<!-- 12 -->
<g id="node10" class="node">
<title>12</title>
<polygon fill="#0d0d73" stroke="#0d0d73" points="873.5,-144 779.5,-144 779.5,-92 873.5,-92 873.5,-144"/>
<text text-anchor="middle" x="826.5" y="-132" font-family="Arial" font-size="10.00" fill="#ffffff">getPlanesRanges</text>
<text text-anchor="middle" x="826.5" y="-121" font-family="Arial" font-size="10.00" fill="#ffffff">0.00%</text>
<text text-anchor="middle" x="826.5" y="-110" font-family="Arial" font-size="10.00" fill="#ffffff">(0.00%)</text>
<text text-anchor="middle" x="826.5" y="-99" font-family="Arial" font-size="10.00" fill="#ffffff">152470×</text>
</g>
<!-- 1&#45;&gt;12 -->
<g id="edge9" class="edge">
<title>1&#45;&gt;12</title>
<path fill="none" stroke="#0d0d73" stroke-width="0.5" d="M589.64,-184.92C590.93,-184.6 592.22,-184.29 593.5,-184 650.45,-171.24 668.5,-191.43 724.5,-175 746.31,-168.6 768.64,-157.01 786.83,-146.03"/>
<polygon fill="#0d0d73" stroke="#0d0d73" stroke-width="0.5" points="787.6,-147 789.95,-144.13 786.32,-144.91 787.6,-147"/>
<text text-anchor="middle" x="792.5" y="-167" font-family="Arial" font-size="10.00" fill="#0d0d73">0.00%</text>
<text text-anchor="middle" x="792.5" y="-156" font-family="Arial" font-size="10.00" fill="#0d0d73">152470×</text>
</g>
<!-- 13 -->
<g id="node11" class="node">
<title>13</title>
<polygon fill="#0d0d73" stroke="#0d0d73" points="978.5,-144 882.5,-144 882.5,-92 978.5,-92 978.5,-144"/>
<text text-anchor="middle" x="930.5" y="-132" font-family="Arial" font-size="10.00" fill="#ffffff">getSourcePosition</text>
<text text-anchor="middle" x="930.5" y="-121" font-family="Arial" font-size="10.00" fill="#ffffff">0.00%</text>
<text text-anchor="middle" x="930.5" y="-110" font-family="Arial" font-size="10.00" fill="#ffffff">(0.00%)</text>
<text text-anchor="middle" x="930.5" y="-99" font-family="Arial" font-size="10.00" fill="#ffffff">7×</text>
</g>
<!-- 1&#45;&gt;13 -->
<g id="edge10" class="edge">
<title>1&#45;&gt;13</title>
<path fill="none" stroke="#0d0d73" stroke-width="0.5" d="M589.63,-184.87C590.92,-184.56 592.22,-184.27 593.5,-184 689.28,-163.92 718.51,-198.54 813.5,-175 838.4,-168.83 864.3,-157.06 885.39,-145.9"/>
<polygon fill="#0d0d73" stroke="#0d0d73" stroke-width="0.5" points="886.22,-146.85 888.73,-144.12 885.07,-144.69 886.22,-146.85"/>
<text text-anchor="middle" x="883.5" y="-167" font-family="Arial" font-size="10.00" fill="#0d0d73">0.00%</text>
<text text-anchor="middle" x="883.5" y="-156" font-family="Arial" font-size="10.00" fill="#0d0d73">7×</text>
</g>
<!-- 8 -->
<g id="node16" class="node">
<title>8</title>
<polygon fill="#0d0d73" stroke="#0d0d73" points="293.5,-52 203.5,-52 203.5,0 293.5,0 293.5,-52"/>
<text text-anchor="middle" x="248.5" y="-40" font-family="Arial" font-size="10.00" fill="#ffffff">getPlanePosition</text>
<text text-anchor="middle" x="248.5" y="-29" font-family="Arial" font-size="10.00" fill="#ffffff">0.00%</text>
<text text-anchor="middle" x="248.5" y="-18" font-family="Arial" font-size="10.00" fill="#ffffff">(0.00%)</text>
<text text-anchor="middle" x="248.5" y="-7" font-family="Arial" font-size="10.00" fill="#ffffff">38795947×</text>
</g>
<!-- 3&#45;&gt;8 -->
<g id="edge15" class="edge">
<title>3&#45;&gt;8</title>
<path fill="none" stroke="#0d0d73" stroke-width="0.5" d="M87.44,-91.76C103.82,-81.3 123.62,-69.63 142.5,-61 160.63,-52.72 181.35,-45.59 199.64,-40.03"/>
<polygon fill="#0d0d73" stroke="#0d0d73" stroke-width="0.5" points="200.26,-41.12 203.26,-38.94 199.56,-38.78 200.26,-41.12"/>
<text text-anchor="middle" x="167" y="-75" font-family="Arial" font-size="10.00" fill="#0d0d73">0.00%</text>
<text text-anchor="middle" x="167" y="-64" font-family="Arial" font-size="10.00" fill="#0d0d73">35812587×</text>
</g>
<!-- 4&#45;&gt;8 -->
<g id="edge16" class="edge">
<title>4&#45;&gt;8</title>
<path fill="none" stroke="#0d0d73" stroke-width="0.5" d="M184.29,-91.93C195.67,-80.42 209.21,-66.73 220.91,-54.9"/>
<polygon fill="#0d0d73" stroke="#0d0d73" stroke-width="0.5" points="221.94,-55.6 223.53,-52.25 220.2,-53.88 221.94,-55.6"/>
<text text-anchor="middle" x="234.5" y="-75" font-family="Arial" font-size="10.00" fill="#0d0d73">0.00%</text>
<text text-anchor="middle" x="234.5" y="-64" font-family="Arial" font-size="10.00" fill="#0d0d73">388540×</text>
</g>
<!-- 7&#45;&gt;8 -->
<g id="edge17" class="edge">
<title>7&#45;&gt;8</title>
<path fill="none" stroke="#0d0d73" stroke-width="0.5" d="M407.85,-93.71C373.64,-79.38 330.21,-61.2 297.34,-47.44"/>
<polygon fill="#0d0d73" stroke="#0d0d73" stroke-width="0.5" points="297.49,-46.18 293.78,-45.96 296.54,-48.44 297.49,-46.18"/>
<text text-anchor="middle" x="404" y="-75" font-family="Arial" font-size="10.00" fill="#0d0d73">0.00%</text>
<text text-anchor="middle" x="404" y="-64" font-family="Arial" font-size="10.00" fill="#0d0d73">1680000×</text>
</g>
<!-- 12&#45;&gt;8 -->
<g id="edge18" class="edge">
<title>12&#45;&gt;8</title>
<path fill="none" stroke="#0d0d73" stroke-width="0.5" d="M779.43,-93.57C777.78,-93.01 776.13,-92.48 774.5,-92 604.09,-41.97 391.63,-30.43 297.4,-27.78"/>
<polygon fill="#0d0d73" stroke="#0d0d73" stroke-width="0.5" points="297.36,-26.56 293.83,-27.68 297.29,-29.01 297.36,-26.56"/>
<text text-anchor="middle" x="751.5" y="-75" font-family="Arial" font-size="10.00" fill="#0d0d73">0.00%</text>
<text text-anchor="middle" x="751.5" y="-64" font-family="Arial" font-size="10.00" fill="#0d0d73">914820×</text>
</g>
<!-- 2 -->
<g id="node12" class="node">
<title>2</title>
<polygon fill="#ff0000" stroke="#ff0000" points="688,-317 633,-317 633,-276 688,-276 688,-317"/>
<text text-anchor="middle" x="660.5" y="-305" font-family="Arial" font-size="10.00" fill="#ffffff">main</text>
<text text-anchor="middle" x="660.5" y="-294" font-family="Arial" font-size="10.00" fill="#ffffff">100.00%</text>
<text text-anchor="middle" x="660.5" y="-283" font-family="Arial" font-size="10.00" fill="#ffffff">(0.00%)</text>
</g>
<!-- 2&#45;&gt;1 -->
<g id="edge11" class="edge">
<title>2&#45;&gt;1</title>
<path fill="none" stroke="#ff0000" stroke-width="4" d="M632.94,-283.98C622.5,-279.22 610.69,-273.33 600.5,-267 588.92,-259.81 577.02,-251.05 566.35,-242.61"/>
<polygon fill="#ff0000" stroke="#ff0000" stroke-width="4" points="568.45,-239.81 558.47,-236.26 564.06,-245.26 568.45,-239.81"/>
<text text-anchor="middle" x="620" y="-259" font-family="Arial" font-size="10.00" fill="#ff0000">100.00%</text>
<text text-anchor="middle" x="620" y="-248" font-family="Arial" font-size="10.00" fill="#ff0000">7×</text>
</g>
<!-- 14 -->
<g id="node13" class="node">
<title>14</title>
<polygon fill="#0d0d73" stroke="#0d0d73" points="656.5,-236 598.5,-236 598.5,-184 656.5,-184 656.5,-236"/>
<text text-anchor="middle" x="627.5" y="-224" font-family="Arial" font-size="10.00" fill="#ffffff">readPGM</text>
<text text-anchor="middle" x="627.5" y="-213" font-family="Arial" font-size="10.00" fill="#ffffff">0.00%</text>
<text text-anchor="middle" x="627.5" y="-202" font-family="Arial" font-size="10.00" fill="#ffffff">(0.00%)</text>
<text text-anchor="middle" x="627.5" y="-191" font-family="Arial" font-size="10.00" fill="#ffffff">7×</text>
</g>
<!-- 2&#45;&gt;14 -->
<g id="edge12" class="edge">
<title>2&#45;&gt;14</title>
<path fill="none" stroke="#0d0d73" stroke-width="0.5" d="M652.85,-275.9C648.63,-265.12 643.33,-251.54 638.67,-239.59"/>
<polygon fill="#0d0d73" stroke="#0d0d73" stroke-width="0.5" points="639.78,-239.08 637.37,-236.27 637.5,-239.97 639.78,-239.08"/>
<text text-anchor="middle" x="663.5" y="-259" font-family="Arial" font-size="10.00" fill="#0d0d73">0.00%</text>
<text text-anchor="middle" x="663.5" y="-248" font-family="Arial" font-size="10.00" fill="#0d0d73">7×</text>
</g>
<!-- 15 -->
<g id="node14" class="node">
<title>15</title>
<polygon fill="#0d0d73" stroke="#0d0d73" points="723.5,-236 665.5,-236 665.5,-184 723.5,-184 723.5,-236"/>
<text text-anchor="middle" x="694.5" y="-224" font-family="Arial" font-size="10.00" fill="#ffffff">initTables</text>
<text text-anchor="middle" x="694.5" y="-213" font-family="Arial" font-size="10.00" fill="#ffffff">0.00%</text>
<text text-anchor="middle" x="694.5" y="-202" font-family="Arial" font-size="10.00" fill="#ffffff">(0.00%)</text>
<text text-anchor="middle" x="694.5" y="-191" font-family="Arial" font-size="10.00" fill="#ffffff">1×</text>
</g>
<!-- 2&#45;&gt;15 -->
<g id="edge13" class="edge">
<title>2&#45;&gt;15</title>
<path fill="none" stroke="#0d0d73" stroke-width="0.5" d="M674.85,-275.73C676.57,-272.89 678.18,-269.93 679.5,-267 683.35,-258.49 686.38,-248.8 688.67,-239.9"/>
<polygon fill="#0d0d73" stroke="#0d0d73" stroke-width="0.5" points="689.95,-239.83 689.61,-236.14 687.58,-239.23 689.95,-239.83"/>
<text text-anchor="middle" x="701.5" y="-259" font-family="Arial" font-size="10.00" fill="#0d0d73">0.00%</text>
<text text-anchor="middle" x="701.5" y="-248" font-family="Arial" font-size="10.00" fill="#0d0d73">1×</text>
</g>
<!-- 16 -->
<g id="node15" class="node">
<title>16</title>
<polygon fill="#0d0d73" stroke="#0d0d73" points="802.5,-236 732.5,-236 732.5,-184 802.5,-184 802.5,-236"/>
<text text-anchor="middle" x="767.5" y="-224" font-family="Arial" font-size="10.00" fill="#ffffff">writeVolume</text>
<text text-anchor="middle" x="767.5" y="-213" font-family="Arial" font-size="10.00" fill="#ffffff">0.00%</text>
<text text-anchor="middle" x="767.5" y="-202" font-family="Arial" font-size="10.00" fill="#ffffff">(0.00%)</text>
<text text-anchor="middle" x="767.5" y="-191" font-family="Arial" font-size="10.00" fill="#ffffff">1×</text>
</g>
<!-- 2&#45;&gt;16 -->
<g id="edge14" class="edge">
<title>2&#45;&gt;16</title>
<path fill="none" stroke="#0d0d73" stroke-width="0.5" d="M688.12,-284.27C697.88,-279.66 708.62,-273.79 717.5,-267 727.92,-259.04 737.87,-248.68 746.11,-239.05"/>
<polygon fill="#0d0d73" stroke="#0d0d73" stroke-width="0.5" points="747.29,-239.55 748.61,-236.09 745.42,-237.97 747.29,-239.55"/>
<text text-anchor="middle" x="753.5" y="-259" font-family="Arial" font-size="10.00" fill="#0d0d73">0.00%</text>
<text text-anchor="middle" x="753.5" y="-248" font-family="Arial" font-size="10.00" fill="#0d0d73">1×</text>
</g>
</g>
</svg>
