<?xml version="1.0" encoding="UTF-8" standalone="no"?>
<!DOCTYPE svg PUBLIC "-//W3C//DTD SVG 1.1//EN"
 "http://www.w3.org/Graphics/SVG/1.1/DTD/svg11.dtd">
<!-- Generated by graphviz version 2.43.0 (0)
 -->
<!-- Title: %3 Pages: 1 -->
<svg width="1056pt" height="325pt"
 viewBox="0.00 0.00 1055.50 325.00" xmlns="http://www.w3.org/2000/svg" xmlns:xlink="http://www.w3.org/1999/xlink">
<g id="graph0" class="graph" transform="scale(1 1) rotate(0) translate(4 321)">
<title>%3</title>
<!-- 1 -->
<g id="node1" class="node">
<title>1</title>
<polygon fill="#ff0000" stroke="#ff0000" points="611.5,-236 491.5,-236 491.5,-184 611.5,-184 611.5,-236"/>
<text text-anchor="middle" x="551.5" y="-224" font-family="Arial" font-size="10.00" fill="#ffffff">computeBackProjection</text>
<text text-anchor="middle" x="551.5" y="-213" font-family="Arial" font-size="10.00" fill="#ffffff">100.00%</text>
<text text-anchor="middle" x="551.5" y="-202" font-family="Arial" font-size="10.00" fill="#ffffff">(11.54%)</text>
<text text-anchor="middle" x="551.5" y="-191" font-family="Arial" font-size="10.00" fill="#ffffff">7×</text>
</g>
<!-- 3 -->
<g id="node2" class="node">
<title>3</title>
<polygon fill="#2fbd09" stroke="#2fbd09" points="101,-144 0,-144 0,-92 101,-92 101,-144"/>
<text text-anchor="middle" x="50.5" y="-132" font-family="Arial" font-size="10.00" fill="#ffffff">computeAbsorption</text>
<text text-anchor="middle" x="50.5" y="-121" font-family="Arial" font-size="10.00" fill="#ffffff">55.33%</text>
<text text-anchor="middle" x="50.5" y="-110" font-family="Arial" font-size="10.00" fill="#ffffff">(26.92%)</text>
<text text-anchor="middle" x="50.5" y="-99" font-family="Arial" font-size="10.00" fill="#ffffff">152470×</text>
</g>
<!-- 1&#45;&gt;3 -->
<g id="edge1" class="edge">
<title>1&#45;&gt;3</title>
<path fill="none" stroke="#2fbd09" stroke-width="2.21" d="M491.36,-207.41C420.41,-204.58 299.24,-196.73 197.5,-175 167.1,-168.51 134.67,-156.72 108.03,-145.62"/>
<polygon fill="#2fbd09" stroke="#2fbd09" stroke-width="2.21" points="108.85,-143.16 101.03,-142.67 106.84,-147.93 108.85,-143.16"/>
<text text-anchor="middle" x="216.5" y="-167" font-family="Arial" font-size="10.00" fill="#2fbd09">55.33%</text>
<text text-anchor="middle" x="216.5" y="-156" font-family="Arial" font-size="10.00" fill="#2fbd09">152470×</text>
</g>
<!-- 5 -->
<g id="node3" class="node">
<title>5</title>
<polygon fill="#0d4382" stroke="#0d4382" points="210.5,-144 110.5,-144 110.5,-92 210.5,-92 210.5,-144"/>
<text text-anchor="middle" x="160.5" y="-132" font-family="Arial" font-size="10.00" fill="#ffffff">mergeIntersections</text>
<text text-anchor="middle" x="160.5" y="-121" font-family="Arial" font-size="10.00" fill="#ffffff">11.54%</text>
<text text-anchor="middle" x="160.5" y="-110" font-family="Arial" font-size="10.00" fill="#ffffff">(11.54%)</text>
<text text-anchor="middle" x="160.5" y="-99" font-family="Arial" font-size="10.00" fill="#ffffff">152470×</text>
</g>
<!-- 1&#45;&gt;5 -->
<g id="edge2" class="edge">
<title>1&#45;&gt;5</title>
<path fill="none" stroke="#0d4382" stroke-width="0.5" d="M491.49,-204.85C439.56,-200.35 362.75,-191.47 297.5,-175 259.72,-165.46 251.48,-158.96 215.5,-144 215.02,-143.8 214.53,-143.6 214.04,-143.39"/>
<polygon fill="#0d4382" stroke="#0d4382" stroke-width="0.5" points="214.5,-142.25 210.8,-142.02 213.54,-144.51 214.5,-142.25"/>
<text text-anchor="middle" x="316.5" y="-167" font-family="Arial" font-size="10.00" fill="#0d4382">11.54%</text>
<text text-anchor="middle" x="316.5" y="-156" font-family="Arial" font-size="10.00" fill="#0d4382">152470×</text>
</g>
<!-- 6 -->
<g id="node4" class="node">
<title>6</title>
<polygon fill="#0d367e" stroke="#0d367e" points="331,-144 220,-144 220,-92 331,-92 331,-144"/>
<text text-anchor="middle" x="275.5" y="-132" font-family="Arial" font-size="10.00" fill="#ffffff">getSidesIntersections</text>
<text text-anchor="middle" x="275.5" y="-121" font-family="Arial" font-size="10.00" fill="#ffffff">9.02%</text>
<text text-anchor="middle" x="275.5" y="-110" font-family="Arial" font-size="10.00" fill="#ffffff">(7.69%)</text>
<text text-anchor="middle" x="275.5" y="-99" font-family="Arial" font-size="10.00" fill="#ffffff">280000×</text>
</g>
<!-- 1&#45;&gt;6 -->
<g id="edge3" class="edge">
<title>1&#45;&gt;6</title>
<path fill="none" stroke="#0d367e" stroke-width="0.5" d="M491.29,-200.37C459.83,-194.9 421.01,-186.63 387.5,-175 365.37,-167.32 342.02,-156.18 322.41,-145.86"/>
<polygon fill="#0d367e" stroke="#0d367e" stroke-width="0.5" points="322.71,-144.63 319.04,-144.08 321.56,-146.8 322.71,-144.63"/>
<text text-anchor="middle" x="406.5" y="-167" font-family="Arial" font-size="10.00" fill="#0d367e">9.02%</text>
<text text-anchor="middle" x="406.5" y="-156" font-family="Arial" font-size="10.00" fill="#0d367e">280000×</text>
</g>
<!-- 7 -->
<g id="node5" class="node">
<title>7</title>
<polygon fill="#0d1f78" stroke="#0d1f78" points="438.5,-144 340.5,-144 340.5,-92 438.5,-92 438.5,-144"/>
<text text-anchor="middle" x="389.5" y="-132" font-family="Arial" font-size="10.00" fill="#ffffff">getAllIntersections</text>
<text text-anchor="middle" x="389.5" y="-121" font-family="Arial" font-size="10.00" fill="#ffffff">4.15%</text>
<text text-anchor="middle" x="389.5" y="-110" font-family="Arial" font-size="10.00" fill="#ffffff">(3.85%)</text>
<text text-anchor="middle" x="389.5" y="-99" font-family="Arial" font-size="10.00" fill="#ffffff">152470×</text>
</g>
<!-- 1&#45;&gt;7 -->
<g id="edge4" class="edge">
<title>1&#45;&gt;7</title>
<path fill="none" stroke="#0d1f78" stroke-width="0.5" d="M491.37,-191.49C479.13,-186.89 466.61,-181.39 455.5,-175 442.05,-167.26 428.71,-156.66 417.59,-146.76"/>
<polygon fill="#0d1f78" stroke="#0d1f78" stroke-width="0.5" points="418.23,-145.69 414.81,-144.26 416.59,-147.51 418.23,-145.69"/>
<text text-anchor="middle" x="474.5" y="-167" font-family="Arial" font-size="10.00" fill="#0d1f78">4.15%</text>
<text text-anchor="middle" x="474.5" y="-156" font-family="Arial" font-size="10.00" fill="#0d1f78">152470×</text>
</g>
<!-- 8 -->
<g id="node6" class="node">
<title>8</title>
<polygon fill="#0d1d78" stroke="#0d1d78" points="501.5,-144 447.5,-144 447.5,-92 501.5,-92 501.5,-144"/>
<text text-anchor="middle" x="474.5" y="-132" font-family="Arial" font-size="10.00" fill="#ffffff">getAMin</text>
<text text-anchor="middle" x="474.5" y="-121" font-family="Arial" font-size="10.00" fill="#ffffff">3.85%</text>
<text text-anchor="middle" x="474.5" y="-110" font-family="Arial" font-size="10.00" fill="#ffffff">(3.85%)</text>
<text text-anchor="middle" x="474.5" y="-99" font-family="Arial" font-size="10.00" fill="#ffffff">280000×</text>
</g>
<!-- 1&#45;&gt;8 -->
<g id="edge5" class="edge">
<title>1&#45;&gt;8</title>
<path fill="none" stroke="#0d1d78" stroke-width="0.5" d="M520.11,-183.84C517.09,-180.98 514.16,-178 511.5,-175 504.07,-166.61 497,-156.62 491.06,-147.42"/>
<polygon fill="#0d1d78" stroke="#0d1d78" stroke-width="0.5" points="491.84,-146.36 488.93,-144.06 489.78,-147.68 491.84,-146.36"/>
<text text-anchor="middle" x="530.5" y="-167" font-family="Arial" font-size="10.00" fill="#0d1d78">3.85%</text>
<text text-anchor="middle" x="530.5" y="-156" font-family="Arial" font-size="10.00" fill="#0d1d78">280000×</text>
</g>
<!-- 9 -->
<g id="node7" class="node">
<title>9</title>
<polygon fill="#0d1d78" stroke="#0d1d78" points="592.5,-144 510.5,-144 510.5,-92 592.5,-92 592.5,-144"/>
<text text-anchor="middle" x="551.5" y="-132" font-family="Arial" font-size="10.00" fill="#ffffff">getParallelAxis</text>
<text text-anchor="middle" x="551.5" y="-121" font-family="Arial" font-size="10.00" fill="#ffffff">3.85%</text>
<text text-anchor="middle" x="551.5" y="-110" font-family="Arial" font-size="10.00" fill="#ffffff">(3.85%)</text>
<text text-anchor="middle" x="551.5" y="-99" font-family="Arial" font-size="10.00" fill="#ffffff">280000×</text>
</g>
<!-- 1&#45;&gt;9 -->
<g id="edge6" class="edge">
<title>1&#45;&gt;9</title>
<path fill="none" stroke="#0d1d78" stroke-width="0.5" d="M551.5,-183.93C551.5,-172.71 551.5,-159.42 551.5,-147.8"/>
<polygon fill="#0d1d78" stroke="#0d1d78" stroke-width="0.5" points="552.73,-147.75 551.5,-144.25 550.28,-147.75 552.73,-147.75"/>
<text text-anchor="middle" x="570.5" y="-167" font-family="Arial" font-size="10.00" fill="#0d1d78">3.85%</text>
<text text-anchor="middle" x="570.5" y="-156" font-family="Arial" font-size="10.00" fill="#0d1d78">280000×</text>
</g>
<!-- 10 -->
<g id="node8" class="node">
<title>10</title>
<polygon fill="#0d1074" stroke="#0d1074" points="695.5,-144 601.5,-144 601.5,-92 695.5,-92 695.5,-144"/>
<text text-anchor="middle" x="648.5" y="-132" font-family="Arial" font-size="10.00" fill="#ffffff">getPlanesRanges</text>
<text text-anchor="middle" x="648.5" y="-121" font-family="Arial" font-size="10.00" fill="#ffffff">0.73%</text>
<text text-anchor="middle" x="648.5" y="-110" font-family="Arial" font-size="10.00" fill="#ffffff">(0.00%)</text>
<text text-anchor="middle" x="648.5" y="-99" font-family="Arial" font-size="10.00" fill="#ffffff">152470×</text>
</g>
<!-- 1&#45;&gt;10 -->
<g id="edge7" class="edge">
<title>1&#45;&gt;10</title>
<path fill="none" stroke="#0d1074" stroke-width="0.5" d="M581.41,-183.98C584.85,-180.99 588.27,-177.95 591.5,-175 601.24,-166.09 611.62,-156.07 620.81,-146.99"/>
<polygon fill="#0d1074" stroke="#0d1074" stroke-width="0.5" points="622,-147.54 623.62,-144.21 620.27,-145.8 622,-147.54"/>
<text text-anchor="middle" x="633.5" y="-167" font-family="Arial" font-size="10.00" fill="#0d1074">0.73%</text>
<text text-anchor="middle" x="633.5" y="-156" font-family="Arial" font-size="10.00" fill="#0d1074">152470×</text>
</g>
<!-- 11 -->
<g id="node9" class="node">
<title>11</title>
<polygon fill="#0d0d73" stroke="#0d0d73" points="760.5,-144 704.5,-144 704.5,-92 760.5,-92 760.5,-144"/>
<text text-anchor="middle" x="732.5" y="-132" font-family="Arial" font-size="10.00" fill="#ffffff">getAMax</text>
<text text-anchor="middle" x="732.5" y="-121" font-family="Arial" font-size="10.00" fill="#ffffff">0.00%</text>
<text text-anchor="middle" x="732.5" y="-110" font-family="Arial" font-size="10.00" fill="#ffffff">(0.00%)</text>
<text text-anchor="middle" x="732.5" y="-99" font-family="Arial" font-size="10.00" fill="#ffffff">280000×</text>
</g>
<!-- 1&#45;&gt;11 -->
<g id="edge8" class="edge">
<title>1&#45;&gt;11</title>
<path fill="none" stroke="#0d0d73" stroke-width="0.5" d="M611.71,-185.2C612.98,-184.79 614.25,-184.39 615.5,-184 632.5,-178.75 638.22,-182.17 654.5,-175 676.72,-165.21 679.82,-158.23 699.5,-144 700.11,-143.56 700.73,-143.11 701.35,-142.66"/>
<polygon fill="#0d0d73" stroke="#0d0d73" stroke-width="0.5" points="702.38,-143.42 704.48,-140.36 700.93,-141.44 702.38,-143.42"/>
<text text-anchor="middle" x="707.5" y="-167" font-family="Arial" font-size="10.00" fill="#0d0d73">0.00%</text>
<text text-anchor="middle" x="707.5" y="-156" font-family="Arial" font-size="10.00" fill="#0d0d73">280000×</text>
</g>
<!-- 12 -->
<g id="node10" class="node">
<title>12</title>
<polygon fill="#0d0d73" stroke="#0d0d73" points="857,-144 770,-144 770,-92 857,-92 857,-144"/>
<text text-anchor="middle" x="813.5" y="-132" font-family="Arial" font-size="10.00" fill="#ffffff">getPixelPosition</text>
<text text-anchor="middle" x="813.5" y="-121" font-family="Arial" font-size="10.00" fill="#ffffff">0.00%</text>
<text text-anchor="middle" x="813.5" y="-110" font-family="Arial" font-size="10.00" fill="#ffffff">(0.00%)</text>
<text text-anchor="middle" x="813.5" y="-99" font-family="Arial" font-size="10.00" fill="#ffffff">280000×</text>
</g>
<!-- 1&#45;&gt;12 -->
<g id="edge9" class="edge">
<title>1&#45;&gt;12</title>
<path fill="none" stroke="#0d0d73" stroke-width="0.5" d="M611.64,-184.94C612.93,-184.61 614.22,-184.29 615.5,-184 664.6,-172.71 680.85,-191.37 728.5,-175 747.14,-168.59 765.68,-157.13 780.66,-146.24"/>
<polygon fill="#0d0d73" stroke="#0d0d73" stroke-width="0.5" points="781.52,-147.14 783.61,-144.08 780.07,-145.16 781.52,-147.14"/>
<text text-anchor="middle" x="788.5" y="-167" font-family="Arial" font-size="10.00" fill="#0d0d73">0.00%</text>
<text text-anchor="middle" x="788.5" y="-156" font-family="Arial" font-size="10.00" fill="#0d0d73">280000×</text>
</g>
<!-- 13 -->
<g id="node11" class="node">
<title>13</title>
<polygon fill="#0d0d73" stroke="#0d0d73" points="942.5,-144 866.5,-144 866.5,-92 942.5,-92 942.5,-144"/>
<text text-anchor="middle" x="904.5" y="-132" font-family="Arial" font-size="10.00" fill="#ffffff">isArraySorted</text>
<text text-anchor="middle" x="904.5" y="-121" font-family="Arial" font-size="10.00" fill="#ffffff">0.00%</text>
<text text-anchor="middle" x="904.5" y="-110" font-family="Arial" font-size="10.00" fill="#ffffff">(0.00%)</text>
<text text-anchor="middle" x="904.5" y="-99" font-family="Arial" font-size="10.00" fill="#ffffff">152470×</text>
</g>
<!-- 1&#45;&gt;13 -->
<g id="edge10" class="edge">
<title>1&#45;&gt;13</title>
<path fill="none" stroke="#0d0d73" stroke-width="0.5" d="M611.63,-184.88C612.93,-184.57 614.22,-184.27 615.5,-184 657.71,-175.03 768.14,-187.32 809.5,-175 830.14,-168.85 850.99,-157.29 867.87,-146.27"/>
<polygon fill="#0d0d73" stroke="#0d0d73" stroke-width="0.5" points="868.95,-147.02 871.2,-144.07 867.6,-144.98 868.95,-147.02"/>
<text text-anchor="middle" x="874.5" y="-167" font-family="Arial" font-size="10.00" fill="#0d0d73">0.00%</text>
<text text-anchor="middle" x="874.5" y="-156" font-family="Arial" font-size="10.00" fill="#0d0d73">152470×</text>
</g>
<!-- 14 -->
<g id="node12" class="node">
<title>14</title>
<polygon fill="#0d0d73" stroke="#0d0d73" points="1047.5,-144 951.5,-144 951.5,-92 1047.5,-92 1047.5,-144"/>
<text text-anchor="middle" x="999.5" y="-132" font-family="Arial" font-size="10.00" fill="#ffffff">getSourcePosition</text>
<text text-anchor="middle" x="999.5" y="-121" font-family="Arial" font-size="10.00" fill="#ffffff">0.00%</text>
<text text-anchor="middle" x="999.5" y="-110" font-family="Arial" font-size="10.00" fill="#ffffff">(0.00%)</text>
<text text-anchor="middle" x="999.5" y="-99" font-family="Arial" font-size="10.00" fill="#ffffff">7×</text>
</g>
<!-- 1&#45;&gt;14 -->
<g id="edge11" class="edge">
<title>1&#45;&gt;14</title>
<path fill="none" stroke="#0d0d73" stroke-width="0.5" d="M611.62,-184.86C612.92,-184.55 614.21,-184.26 615.5,-184 676.49,-171.49 835.39,-191.19 895.5,-175 917.96,-168.95 940.94,-157.27 959.56,-146.13"/>
<polygon fill="#0d0d73" stroke="#0d0d73" stroke-width="0.5" points="960.39,-147.06 962.75,-144.2 959.12,-144.97 960.39,-147.06"/>
<text text-anchor="middle" x="959.5" y="-167" font-family="Arial" font-size="10.00" fill="#0d0d73">0.00%</text>
<text text-anchor="middle" x="959.5" y="-156" font-family="Arial" font-size="10.00" fill="#0d0d73">7×</text>
</g>
<!-- 4 -->
<g id="node17" class="node">
<title>4</title>
<polygon fill="#0c9b7a" stroke="#0c9b7a" points="362.5,-52 272.5,-52 272.5,0 362.5,0 362.5,-52"/>
<text text-anchor="middle" x="317.5" y="-40" font-family="Arial" font-size="10.00" fill="#ffffff">getPlanePosition</text>
<text text-anchor="middle" x="317.5" y="-29" font-family="Arial" font-size="10.00" fill="#ffffff">30.77%</text>
<text text-anchor="middle" x="317.5" y="-18" font-family="Arial" font-size="10.00" fill="#ffffff">(30.77%)</text>
<text text-anchor="middle" x="317.5" y="-7" font-family="Arial" font-size="10.00" fill="#ffffff">38795947×</text>
</g>
<!-- 3&#45;&gt;4 -->
<g id="edge16" class="edge">
<title>3&#45;&gt;4</title>
<path fill="none" stroke="#0c9885" stroke-width="1.14" d="M101.04,-93.73C102.54,-93.14 104.03,-92.56 105.5,-92 159.81,-71.43 223.74,-52.53 267.08,-40.47"/>
<polygon fill="#0c9885" stroke="#0c9885" stroke-width="1.14" points="267.65,-42.24 272.27,-39.04 266.66,-38.67 267.65,-42.24"/>
<text text-anchor="middle" x="217" y="-75" font-family="Arial" font-size="10.00" fill="#0c9885">28.40%</text>
<text text-anchor="middle" x="217" y="-64" font-family="Arial" font-size="10.00" fill="#0c9885">35812587×</text>
</g>
<!-- 6&#45;&gt;4 -->
<g id="edge17" class="edge">
<title>6&#45;&gt;4</title>
<path fill="none" stroke="#0d1274" stroke-width="0.5" d="M287.2,-91.93C292.48,-80.61 298.74,-67.19 304.2,-55.5"/>
<polygon fill="#0d1274" stroke="#0d1274" stroke-width="0.5" points="305.35,-55.94 305.72,-52.25 303.13,-54.9 305.35,-55.94"/>
<text text-anchor="middle" x="323" y="-75" font-family="Arial" font-size="10.00" fill="#0d1274">1.33%</text>
<text text-anchor="middle" x="323" y="-64" font-family="Arial" font-size="10.00" fill="#0d1274">1680000×</text>
</g>
<!-- 7&#45;&gt;4 -->
<g id="edge18" class="edge">
<title>7&#45;&gt;4</title>
<path fill="none" stroke="#0d0e73" stroke-width="0.5" d="M370.72,-91.98C363.29,-82.22 354.6,-71 346.5,-61 344.89,-59.01 343.21,-56.97 341.51,-54.92"/>
<polygon fill="#0d0e73" stroke="#0d0e73" stroke-width="0.5" points="342.37,-54.03 339.18,-52.13 340.48,-55.6 342.37,-54.03"/>
<text text-anchor="middle" x="382.5" y="-75" font-family="Arial" font-size="10.00" fill="#0d0e73">0.31%</text>
<text text-anchor="middle" x="382.5" y="-64" font-family="Arial" font-size="10.00" fill="#0d0e73">388540×</text>
</g>
<!-- 10&#45;&gt;4 -->
<g id="edge19" class="edge">
<title>10&#45;&gt;4</title>
<path fill="none" stroke="#0d1074" stroke-width="0.5" d="M601.36,-93.79C599.73,-93.17 598.11,-92.57 596.5,-92 518,-64.36 422.93,-45.09 366.48,-35.05"/>
<polygon fill="#0d1074" stroke="#0d1074" stroke-width="0.5" points="366.48,-33.8 362.82,-34.4 366.05,-36.21 366.48,-33.8"/>
<text text-anchor="middle" x="586.5" y="-75" font-family="Arial" font-size="10.00" fill="#0d1074">0.73%</text>
<text text-anchor="middle" x="586.5" y="-64" font-family="Arial" font-size="10.00" fill="#0d1074">914820×</text>
</g>
<!-- 2 -->
<g id="node13" class="node">
<title>2</title>
<polygon fill="#ff0000" stroke="#ff0000" points="710,-317 655,-317 655,-276 710,-276 710,-317"/>
<text text-anchor="middle" x="682.5" y="-305" font-family="Arial" font-size="10.00" fill="#ffffff">main</text>
<text text-anchor="middle" x="682.5" y="-294" font-family="Arial" font-size="10.00" fill="#ffffff">100.00%</text>
<text text-anchor="middle" x="682.5" y="-283" font-family="Arial" font-size="10.00" fill="#ffffff">(0.00%)</text>
</g>
<!-- 2&#45;&gt;1 -->
<g id="edge12" class="edge">
<title>2&#45;&gt;1</title>
<path fill="none" stroke="#ff0000" stroke-width="4" d="M654.94,-283.98C644.5,-279.22 632.69,-273.33 622.5,-267 610.92,-259.81 599.02,-251.05 588.35,-242.61"/>
<polygon fill="#ff0000" stroke="#ff0000" stroke-width="4" points="590.45,-239.81 580.47,-236.26 586.06,-245.26 590.45,-239.81"/>
<text text-anchor="middle" x="642" y="-259" font-family="Arial" font-size="10.00" fill="#ff0000">100.00%</text>
<text text-anchor="middle" x="642" y="-248" font-family="Arial" font-size="10.00" fill="#ff0000">7×</text>
</g>
<!-- 15 -->
<g id="node14" class="node">
<title>15</title>
<polygon fill="#0d0d73" stroke="#0d0d73" points="678.5,-236 620.5,-236 620.5,-184 678.5,-184 678.5,-236"/>
<text text-anchor="middle" x="649.5" y="-224" font-family="Arial" font-size="10.00" fill="#ffffff">readPGM</text>
<text text-anchor="middle" x="649.5" y="-213" font-family="Arial" font-size="10.00" fill="#ffffff">0.00%</text>
<text text-anchor="middle" x="649.5" y="-202" font-family="Arial" font-size="10.00" fill="#ffffff">(0.00%)</text>
<text text-anchor="middle" x="649.5" y="-191" font-family="Arial" font-size="10.00" fill="#ffffff">7×</text>
</g>
<!-- 2&#45;&gt;15 -->
<g id="edge13" class="edge">
<title>2&#45;&gt;15</title>
<path fill="none" stroke="#0d0d73" stroke-width="0.5" d="M674.85,-275.9C670.63,-265.12 665.33,-251.54 660.67,-239.59"/>
<polygon fill="#0d0d73" stroke="#0d0d73" stroke-width="0.5" points="661.78,-239.08 659.37,-236.27 659.5,-239.97 661.78,-239.08"/>
<text text-anchor="middle" x="685.5" y="-259" font-family="Arial" font-size="10.00" fill="#0d0d73">0.00%</text>
<text text-anchor="middle" x="685.5" y="-248" font-family="Arial" font-size="10.00" fill="#0d0d73">7×</text>
</g>
<!-- 16 -->
<g id="node15" class="node">
<title>16</title>
<polygon fill="#0d0d73" stroke="#0d0d73" points="745.5,-236 687.5,-236 687.5,-184 745.5,-184 745.5,-236"/>
<text text-anchor="middle" x="716.5" y="-224" font-family="Arial" font-size="10.00" fill="#ffffff">initTables</text>
<text text-anchor="middle" x="716.5" y="-213" font-family="Arial" font-size="10.00" fill="#ffffff">0.00%</text>
<text text-anchor="middle" x="716.5" y="-202" font-family="Arial" font-size="10.00" fill="#ffffff">(0.00%)</text>
<text text-anchor="middle" x="716.5" y="-191" font-family="Arial" font-size="10.00" fill="#ffffff">1×</text>
</g>
<!-- 2&#45;&gt;16 -->
<g id="edge14" class="edge">
<title>2&#45;&gt;16</title>
<path fill="none" stroke="#0d0d73" stroke-width="0.5" d="M696.85,-275.73C698.57,-272.89 700.18,-269.93 701.5,-267 705.35,-258.49 708.38,-248.8 710.67,-239.9"/>
<polygon fill="#0d0d73" stroke="#0d0d73" stroke-width="0.5" points="711.95,-239.83 711.61,-236.14 709.58,-239.23 711.95,-239.83"/>
<text text-anchor="middle" x="723.5" y="-259" font-family="Arial" font-size="10.00" fill="#0d0d73">0.00%</text>
<text text-anchor="middle" x="723.5" y="-248" font-family="Arial" font-size="10.00" fill="#0d0d73">1×</text>
</g>
<!-- 17 -->
<g id="node16" class="node">
<title>17</title>
<polygon fill="#0d0d73" stroke="#0d0d73" points="824.5,-236 754.5,-236 754.5,-184 824.5,-184 824.5,-236"/>
<text text-anchor="middle" x="789.5" y="-224" font-family="Arial" font-size="10.00" fill="#ffffff">writeVolume</text>
<text text-anchor="middle" x="789.5" y="-213" font-family="Arial" font-size="10.00" fill="#ffffff">0.00%</text>
<text text-anchor="middle" x="789.5" y="-202" font-family="Arial" font-size="10.00" fill="#ffffff">(0.00%)</text>
<text text-anchor="middle" x="789.5" y="-191" font-family="Arial" font-size="10.00" fill="#ffffff">1×</text>
</g>
<!-- 2&#45;&gt;17 -->
<g id="edge15" class="edge">
<title>2&#45;&gt;17</title>
<path fill="none" stroke="#0d0d73" stroke-width="0.5" d="M710.12,-284.27C719.88,-279.66 730.62,-273.79 739.5,-267 749.92,-259.04 759.87,-248.68 768.11,-239.05"/>
<polygon fill="#0d0d73" stroke="#0d0d73" stroke-width="0.5" points="769.29,-239.55 770.61,-236.09 767.42,-237.97 769.29,-239.55"/>
<text text-anchor="middle" x="775.5" y="-259" font-family="Arial" font-size="10.00" fill="#0d0d73">0.00%</text>
<text text-anchor="middle" x="775.5" y="-248" font-family="Arial" font-size="10.00" fill="#0d0d73">1×</text>
</g>
</g>
</svg>
