<?xml version="1.0" encoding="UTF-8" standalone="no"?>
<!DOCTYPE svg PUBLIC "-//W3C//DTD SVG 1.1//EN"
 "http://www.w3.org/Graphics/SVG/1.1/DTD/svg11.dtd">
<!-- Generated by graphviz version 2.43.0 (0)
 -->
<!-- Title: %3 Pages: 1 -->
<svg width="971pt" height="325pt"
 viewBox="0.00 0.00 970.50 325.00" xmlns="http://www.w3.org/2000/svg" xmlns:xlink="http://www.w3.org/1999/xlink">
<g id="graph0" class="graph" transform="scale(1 1) rotate(0) translate(4 321)">
<title>%3</title>
<!-- 1 -->
<g id="node1" class="node">
<title>1</title>
<polygon fill="#ff0000" stroke="#ff0000" points="612.5,-236 492.5,-236 492.5,-184 612.5,-184 612.5,-236"/>
<text text-anchor="middle" x="552.5" y="-224" font-family="Arial" font-size="10.00" fill="#ffffff">computeBackProjection</text>
<text text-anchor="middle" x="552.5" y="-213" font-family="Arial" font-size="10.00" fill="#ffffff">100.00%</text>
<text text-anchor="middle" x="552.5" y="-202" font-family="Arial" font-size="10.00" fill="#ffffff">(0.36%)</text>
<text text-anchor="middle" x="552.5" y="-191" font-family="Arial" font-size="10.00" fill="#ffffff">7×</text>
</g>
<!-- 3 -->
<g id="node2" class="node">
<title>3</title>
<polygon fill="#a5d207" stroke="#a5d207" points="101,-144 0,-144 0,-92 101,-92 101,-144"/>
<text text-anchor="middle" x="50.5" y="-132" font-family="Arial" font-size="10.00" fill="#ffffff">computeAbsorption</text>
<text text-anchor="middle" x="50.5" y="-121" font-family="Arial" font-size="10.00" fill="#ffffff">69.55%</text>
<text text-anchor="middle" x="50.5" y="-110" font-family="Arial" font-size="10.00" fill="#ffffff">(50.89%)</text>
<text text-anchor="middle" x="50.5" y="-99" font-family="Arial" font-size="10.00" fill="#ffffff">280000×</text>
</g>
<!-- 1&#45;&gt;3 -->
<g id="edge1" class="edge">
<title>1&#45;&gt;3</title>
<path fill="none" stroke="#a5d207" stroke-width="2.78" d="M492.46,-207.61C420.98,-204.96 298.33,-197.28 195.5,-175 166.22,-168.66 135.07,-157.28 109.17,-146.44"/>
<polygon fill="#a5d207" stroke="#a5d207" stroke-width="2.78" points="110.09,-143.67 101.31,-143.09 107.81,-149.02 110.09,-143.67"/>
<text text-anchor="middle" x="214.5" y="-167" font-family="Arial" font-size="10.00" fill="#a5d207">69.55%</text>
<text text-anchor="middle" x="214.5" y="-156" font-family="Arial" font-size="10.00" fill="#a5d207">280000×</text>
</g>
<!-- 5 -->
<g id="node3" class="node">
<title>5</title>
<polygon fill="#0c5285" stroke="#0c5285" points="208.5,-144 110.5,-144 110.5,-92 208.5,-92 208.5,-144"/>
<text text-anchor="middle" x="159.5" y="-132" font-family="Arial" font-size="10.00" fill="#ffffff">getAllIntersections</text>
<text text-anchor="middle" x="159.5" y="-121" font-family="Arial" font-size="10.00" fill="#ffffff">14.31%</text>
<text text-anchor="middle" x="159.5" y="-110" font-family="Arial" font-size="10.00" fill="#ffffff">(14.30%)</text>
<text text-anchor="middle" x="159.5" y="-99" font-family="Arial" font-size="10.00" fill="#ffffff">280000×</text>
</g>
<!-- 1&#45;&gt;5 -->
<g id="edge2" class="edge">
<title>1&#45;&gt;5</title>
<path fill="none" stroke="#0c5285" stroke-width="0.57" d="M492.29,-204.06C441.48,-199.1 367.09,-190.02 303.5,-175 261.92,-165.18 252.11,-160.03 212.5,-144 212.33,-143.93 212.17,-143.87 212,-143.8"/>
<polygon fill="#0c5285" stroke="#0c5285" stroke-width="0.57" points="212.52,-142.57 208.5,-142.35 211.51,-145.03 212.52,-142.57"/>
<text text-anchor="middle" x="322.5" y="-167" font-family="Arial" font-size="10.00" fill="#0c5285">14.31%</text>
<text text-anchor="middle" x="322.5" y="-156" font-family="Arial" font-size="10.00" fill="#0c5285">280000×</text>
</g>
<!-- 6 -->
<g id="node4" class="node">
<title>6</title>
<polygon fill="#0d4e84" stroke="#0d4e84" points="317.5,-144 217.5,-144 217.5,-92 317.5,-92 317.5,-144"/>
<text text-anchor="middle" x="267.5" y="-132" font-family="Arial" font-size="10.00" fill="#ffffff">mergeIntersections</text>
<text text-anchor="middle" x="267.5" y="-121" font-family="Arial" font-size="10.00" fill="#ffffff">13.59%</text>
<text text-anchor="middle" x="267.5" y="-110" font-family="Arial" font-size="10.00" fill="#ffffff">(13.59%)</text>
<text text-anchor="middle" x="267.5" y="-99" font-family="Arial" font-size="10.00" fill="#ffffff">280000×</text>
</g>
<!-- 1&#45;&gt;6 -->
<g id="edge3" class="edge">
<title>1&#45;&gt;6</title>
<path fill="none" stroke="#0d4e84" stroke-width="0.54" d="M492.48,-199.12C462.39,-193.42 425.61,-185.33 393.5,-175 360.72,-164.46 353.95,-158.01 322.5,-144 321.99,-143.77 321.48,-143.55 320.97,-143.32"/>
<polygon fill="#0d4e84" stroke="#0d4e84" stroke-width="0.54" points="321.45,-142.11 317.55,-141.79 320.39,-144.48 321.45,-142.11"/>
<text text-anchor="middle" x="412.5" y="-167" font-family="Arial" font-size="10.00" fill="#0d4e84">13.59%</text>
<text text-anchor="middle" x="412.5" y="-156" font-family="Arial" font-size="10.00" fill="#0d4e84">280000×</text>
</g>
<!-- 7 -->
<g id="node5" class="node">
<title>7</title>
<polygon fill="#0d1475" stroke="#0d1475" points="438,-144 327,-144 327,-92 438,-92 438,-144"/>
<text text-anchor="middle" x="382.5" y="-132" font-family="Arial" font-size="10.00" fill="#ffffff">getSidesIntersections</text>
<text text-anchor="middle" x="382.5" y="-121" font-family="Arial" font-size="10.00" fill="#ffffff">1.69%</text>
<text text-anchor="middle" x="382.5" y="-110" font-family="Arial" font-size="10.00" fill="#ffffff">(1.67%)</text>
<text text-anchor="middle" x="382.5" y="-99" font-family="Arial" font-size="10.00" fill="#ffffff">280000×</text>
</g>
<!-- 1&#45;&gt;7 -->
<g id="edge4" class="edge">
<title>1&#45;&gt;7</title>
<path fill="none" stroke="#0d1475" stroke-width="0.5" d="M492.38,-185.49C484.92,-182.16 477.47,-178.63 470.5,-175 454.09,-166.46 436.75,-155.81 421.85,-146.1"/>
<polygon fill="#0d1475" stroke="#0d1475" stroke-width="0.5" points="422.5,-145.07 418.91,-144.17 421.16,-147.12 422.5,-145.07"/>
<text text-anchor="middle" x="489.5" y="-167" font-family="Arial" font-size="10.00" fill="#0d1475">1.69%</text>
<text text-anchor="middle" x="489.5" y="-156" font-family="Arial" font-size="10.00" fill="#0d1475">280000×</text>
</g>
<!-- 8 -->
<g id="node6" class="node">
<title>8</title>
<polygon fill="#0d0e73" stroke="#0d0e73" points="541.5,-144 447.5,-144 447.5,-92 541.5,-92 541.5,-144"/>
<text text-anchor="middle" x="494.5" y="-132" font-family="Arial" font-size="10.00" fill="#ffffff">getPlanesRanges</text>
<text text-anchor="middle" x="494.5" y="-121" font-family="Arial" font-size="10.00" fill="#ffffff">0.26%</text>
<text text-anchor="middle" x="494.5" y="-110" font-family="Arial" font-size="10.00" fill="#ffffff">(0.24%)</text>
<text text-anchor="middle" x="494.5" y="-99" font-family="Arial" font-size="10.00" fill="#ffffff">280000×</text>
</g>
<!-- 1&#45;&gt;8 -->
<g id="edge5" class="edge">
<title>1&#45;&gt;8</title>
<path fill="none" stroke="#0d0e73" stroke-width="0.5" d="M529.14,-183.96C526.79,-181.02 524.52,-178 522.5,-175 516.71,-166.41 511.35,-156.46 506.9,-147.34"/>
<polygon fill="#0d0e73" stroke="#0d0e73" stroke-width="0.5" points="507.93,-146.65 505.31,-144.03 505.72,-147.71 507.93,-146.65"/>
<text text-anchor="middle" x="541.5" y="-167" font-family="Arial" font-size="10.00" fill="#0d0e73">0.26%</text>
<text text-anchor="middle" x="541.5" y="-156" font-family="Arial" font-size="10.00" fill="#0d0e73">280000×</text>
</g>
<!-- 9 -->
<g id="node7" class="node">
<title>9</title>
<polygon fill="#0d0d73" stroke="#0d0d73" points="606.5,-144 550.5,-144 550.5,-92 606.5,-92 606.5,-144"/>
<text text-anchor="middle" x="578.5" y="-132" font-family="Arial" font-size="10.00" fill="#ffffff">getAMax</text>
<text text-anchor="middle" x="578.5" y="-121" font-family="Arial" font-size="10.00" fill="#ffffff">0.12%</text>
<text text-anchor="middle" x="578.5" y="-110" font-family="Arial" font-size="10.00" fill="#ffffff">(0.12%)</text>
<text text-anchor="middle" x="578.5" y="-99" font-family="Arial" font-size="10.00" fill="#ffffff">280000×</text>
</g>
<!-- 1&#45;&gt;9 -->
<g id="edge6" class="edge">
<title>1&#45;&gt;9</title>
<path fill="none" stroke="#0d0d73" stroke-width="0.5" d="M559.74,-183.93C562.98,-172.71 566.82,-159.42 570.18,-147.8"/>
<polygon fill="#0d0d73" stroke="#0d0d73" stroke-width="0.5" points="571.41,-147.95 571.21,-144.25 569.06,-147.27 571.41,-147.95"/>
<text text-anchor="middle" x="588.5" y="-167" font-family="Arial" font-size="10.00" fill="#0d0d73">0.12%</text>
<text text-anchor="middle" x="588.5" y="-156" font-family="Arial" font-size="10.00" fill="#0d0d73">280000×</text>
</g>
<!-- 10 -->
<g id="node8" class="node">
<title>10</title>
<polygon fill="#0d0d73" stroke="#0d0d73" points="669.5,-144 615.5,-144 615.5,-92 669.5,-92 669.5,-144"/>
<text text-anchor="middle" x="642.5" y="-132" font-family="Arial" font-size="10.00" fill="#ffffff">getAMin</text>
<text text-anchor="middle" x="642.5" y="-121" font-family="Arial" font-size="10.00" fill="#ffffff">0.12%</text>
<text text-anchor="middle" x="642.5" y="-110" font-family="Arial" font-size="10.00" fill="#ffffff">(0.12%)</text>
<text text-anchor="middle" x="642.5" y="-99" font-family="Arial" font-size="10.00" fill="#ffffff">280000×</text>
</g>
<!-- 1&#45;&gt;10 -->
<g id="edge7" class="edge">
<title>1&#45;&gt;10</title>
<path fill="none" stroke="#0d0d73" stroke-width="0.5" d="M599.1,-183.99C602.8,-181.19 606.33,-178.19 609.5,-175 617.3,-167.16 623.96,-157.12 629.21,-147.71"/>
<polygon fill="#0d0d73" stroke="#0d0d73" stroke-width="0.5" points="630.48,-147.94 631.08,-144.28 628.33,-146.77 630.48,-147.94"/>
<text text-anchor="middle" x="645.5" y="-167" font-family="Arial" font-size="10.00" fill="#0d0d73">0.12%</text>
<text text-anchor="middle" x="645.5" y="-156" font-family="Arial" font-size="10.00" fill="#0d0d73">280000×</text>
</g>
<!-- 11 -->
<g id="node9" class="node">
<title>11</title>
<polygon fill="#0d0d73" stroke="#0d0d73" points="760.5,-144 678.5,-144 678.5,-92 760.5,-92 760.5,-144"/>
<text text-anchor="middle" x="719.5" y="-132" font-family="Arial" font-size="10.00" fill="#ffffff">getParallelAxis</text>
<text text-anchor="middle" x="719.5" y="-121" font-family="Arial" font-size="10.00" fill="#ffffff">0.00%</text>
<text text-anchor="middle" x="719.5" y="-110" font-family="Arial" font-size="10.00" fill="#ffffff">(0.00%)</text>
<text text-anchor="middle" x="719.5" y="-99" font-family="Arial" font-size="10.00" fill="#ffffff">280000×</text>
</g>
<!-- 1&#45;&gt;11 -->
<g id="edge8" class="edge">
<title>1&#45;&gt;11</title>
<path fill="none" stroke="#0d0d73" stroke-width="0.5" d="M612.69,-185.11C613.96,-184.73 615.24,-184.36 616.5,-184 638.23,-177.86 646.64,-185.74 666.5,-175 679.09,-168.19 690.42,-157.3 699.33,-146.92"/>
<polygon fill="#0d0d73" stroke="#0d0d73" stroke-width="0.5" points="700.46,-147.48 701.78,-144.01 698.59,-145.9 700.46,-147.48"/>
<text text-anchor="middle" x="711.5" y="-167" font-family="Arial" font-size="10.00" fill="#0d0d73">0.00%</text>
<text text-anchor="middle" x="711.5" y="-156" font-family="Arial" font-size="10.00" fill="#0d0d73">280000×</text>
</g>
<!-- 12 -->
<g id="node10" class="node">
<title>12</title>
<polygon fill="#0d0d73" stroke="#0d0d73" points="857,-144 770,-144 770,-92 857,-92 857,-144"/>
<text text-anchor="middle" x="813.5" y="-132" font-family="Arial" font-size="10.00" fill="#ffffff">getPixelPosition</text>
<text text-anchor="middle" x="813.5" y="-121" font-family="Arial" font-size="10.00" fill="#ffffff">0.00%</text>
<text text-anchor="middle" x="813.5" y="-110" font-family="Arial" font-size="10.00" fill="#ffffff">(0.00%)</text>
<text text-anchor="middle" x="813.5" y="-99" font-family="Arial" font-size="10.00" fill="#ffffff">280000×</text>
</g>
<!-- 1&#45;&gt;12 -->
<g id="edge9" class="edge">
<title>1&#45;&gt;12</title>
<path fill="none" stroke="#0d0d73" stroke-width="0.5" d="M612.64,-184.94C613.93,-184.61 615.22,-184.29 616.5,-184 666.91,-172.47 683.77,-192.3 732.5,-175 750.47,-168.62 768.16,-157.16 782.41,-146.27"/>
<polygon fill="#0d0d73" stroke="#0d0d73" stroke-width="0.5" points="783.19,-147.21 785.21,-144.1 781.69,-145.27 783.19,-147.21"/>
<text text-anchor="middle" x="791.5" y="-167" font-family="Arial" font-size="10.00" fill="#0d0d73">0.00%</text>
<text text-anchor="middle" x="791.5" y="-156" font-family="Arial" font-size="10.00" fill="#0d0d73">280000×</text>
</g>
<!-- 14 -->
<g id="node11" class="node">
<title>14</title>
<polygon fill="#0d0d73" stroke="#0d0d73" points="962.5,-144 866.5,-144 866.5,-92 962.5,-92 962.5,-144"/>
<text text-anchor="middle" x="914.5" y="-132" font-family="Arial" font-size="10.00" fill="#ffffff">getSourcePosition</text>
<text text-anchor="middle" x="914.5" y="-121" font-family="Arial" font-size="10.00" fill="#ffffff">0.00%</text>
<text text-anchor="middle" x="914.5" y="-110" font-family="Arial" font-size="10.00" fill="#ffffff">(0.00%)</text>
<text text-anchor="middle" x="914.5" y="-99" font-family="Arial" font-size="10.00" fill="#ffffff">7×</text>
</g>
<!-- 1&#45;&gt;14 -->
<g id="edge10" class="edge">
<title>1&#45;&gt;14</title>
<path fill="none" stroke="#0d0d73" stroke-width="0.5" d="M612.63,-184.88C613.93,-184.57 615.22,-184.27 616.5,-184 701.8,-165.89 728.55,-198.59 812.5,-175 834.56,-168.8 857.1,-157.1 875.36,-145.99"/>
<polygon fill="#0d0d73" stroke="#0d0d73" stroke-width="0.5" points="876.14,-146.94 878.48,-144.07 874.86,-144.86 876.14,-146.94"/>
<text text-anchor="middle" x="875.5" y="-167" font-family="Arial" font-size="10.00" fill="#0d0d73">0.00%</text>
<text text-anchor="middle" x="875.5" y="-156" font-family="Arial" font-size="10.00" fill="#0d0d73">7×</text>
</g>
<!-- 4 -->
<g id="node15" class="node">
<title>4</title>
<polygon fill="#0c6b8b" stroke="#0c6b8b" points="265.5,-52 175.5,-52 175.5,0 265.5,0 265.5,-52"/>
<text text-anchor="middle" x="220.5" y="-40" font-family="Arial" font-size="10.00" fill="#ffffff">getPlanePosition</text>
<text text-anchor="middle" x="220.5" y="-29" font-family="Arial" font-size="10.00" fill="#ffffff">18.71%</text>
<text text-anchor="middle" x="220.5" y="-18" font-family="Arial" font-size="10.00" fill="#ffffff">(18.71%)</text>
<text text-anchor="middle" x="220.5" y="-7" font-family="Arial" font-size="10.00" fill="#ffffff">1266730376×</text>
</g>
<!-- 3&#45;&gt;4 -->
<g id="edge14" class="edge">
<title>3&#45;&gt;4</title>
<path fill="none" stroke="#0c6b8b" stroke-width="0.75" d="M78.42,-91.81C91.18,-81.24 106.91,-69.46 122.5,-61 137.54,-52.83 154.93,-46.04 170.84,-40.73"/>
<polygon fill="#0c6b8b" stroke="#0c6b8b" stroke-width="0.75" points="171.67,-42.04 175.29,-39.27 170.73,-39.18 171.67,-42.04"/>
<text text-anchor="middle" x="152" y="-75" font-family="Arial" font-size="10.00" fill="#0c6b8b">18.65%</text>
<text text-anchor="middle" x="152" y="-64" font-family="Arial" font-size="10.00" fill="#0c6b8b">1262568168×</text>
</g>
<!-- 5&#45;&gt;4 -->
<g id="edge15" class="edge">
<title>5&#45;&gt;4</title>
<path fill="none" stroke="#0d0d73" stroke-width="0.5" d="M176.49,-91.93C184.23,-80.52 193.41,-66.96 201.39,-55.2"/>
<polygon fill="#0d0d73" stroke="#0d0d73" stroke-width="0.5" points="202.44,-55.83 203.39,-52.25 200.41,-54.46 202.44,-55.83"/>
<text text-anchor="middle" x="216.5" y="-75" font-family="Arial" font-size="10.00" fill="#0d0d73">0.01%</text>
<text text-anchor="middle" x="216.5" y="-64" font-family="Arial" font-size="10.00" fill="#0d0d73">802208×</text>
</g>
<!-- 7&#45;&gt;4 -->
<g id="edge16" class="edge">
<title>7&#45;&gt;4</title>
<path fill="none" stroke="#0d0d73" stroke-width="0.5" d="M337.37,-91.93C316.05,-80.08 290.56,-65.92 268.84,-53.86"/>
<polygon fill="#0d0d73" stroke="#0d0d73" stroke-width="0.5" points="269.32,-52.72 265.66,-52.09 268.13,-54.86 269.32,-52.72"/>
<text text-anchor="middle" x="343" y="-75" font-family="Arial" font-size="10.00" fill="#0d0d73">0.02%</text>
<text text-anchor="middle" x="343" y="-64" font-family="Arial" font-size="10.00" fill="#0d0d73">1680000×</text>
</g>
<!-- 8&#45;&gt;4 -->
<g id="edge17" class="edge">
<title>8&#45;&gt;4</title>
<path fill="none" stroke="#0d0d73" stroke-width="0.5" d="M447.23,-94.12C445.64,-93.4 444.06,-92.69 442.5,-92 409.16,-77.2 401.26,-72.06 366.5,-61 334.57,-50.84 297.82,-42.3 269.18,-36.32"/>
<polygon fill="#0d0d73" stroke="#0d0d73" stroke-width="0.5" points="269.4,-35.11 265.73,-35.6 268.91,-37.51 269.4,-35.11"/>
<text text-anchor="middle" x="444" y="-75" font-family="Arial" font-size="10.00" fill="#0d0d73">0.02%</text>
<text text-anchor="middle" x="444" y="-64" font-family="Arial" font-size="10.00" fill="#0d0d73">1680000×</text>
</g>
<!-- 2 -->
<g id="node12" class="node">
<title>2</title>
<polygon fill="#ff0000" stroke="#ff0000" points="678,-317 623,-317 623,-276 678,-276 678,-317"/>
<text text-anchor="middle" x="650.5" y="-305" font-family="Arial" font-size="10.00" fill="#ffffff">main</text>
<text text-anchor="middle" x="650.5" y="-294" font-family="Arial" font-size="10.00" fill="#ffffff">100.00%</text>
<text text-anchor="middle" x="650.5" y="-283" font-family="Arial" font-size="10.00" fill="#ffffff">(0.00%)</text>
</g>
<!-- 2&#45;&gt;1 -->
<g id="edge11" class="edge">
<title>2&#45;&gt;1</title>
<path fill="none" stroke="#ff0000" stroke-width="4" d="M622.68,-277.11C618.18,-273.87 613.64,-270.43 609.5,-267 600.75,-259.75 591.76,-251.4 583.59,-243.41"/>
<polygon fill="#ff0000" stroke="#ff0000" stroke-width="4" points="585.9,-240.77 576.34,-236.2 580.96,-245.73 585.9,-240.77"/>
<text text-anchor="middle" x="629" y="-259" font-family="Arial" font-size="10.00" fill="#ff0000">100.00%</text>
<text text-anchor="middle" x="629" y="-248" font-family="Arial" font-size="10.00" fill="#ff0000">7×</text>
</g>
<!-- 13 -->
<g id="node13" class="node">
<title>13</title>
<polygon fill="#0d0d73" stroke="#0d0d73" points="679.5,-236 621.5,-236 621.5,-184 679.5,-184 679.5,-236"/>
<text text-anchor="middle" x="650.5" y="-224" font-family="Arial" font-size="10.00" fill="#ffffff">readPGM</text>
<text text-anchor="middle" x="650.5" y="-213" font-family="Arial" font-size="10.00" fill="#ffffff">0.00%</text>
<text text-anchor="middle" x="650.5" y="-202" font-family="Arial" font-size="10.00" fill="#ffffff">(0.00%)</text>
<text text-anchor="middle" x="650.5" y="-191" font-family="Arial" font-size="10.00" fill="#ffffff">8×</text>
</g>
<!-- 2&#45;&gt;13 -->
<g id="edge12" class="edge">
<title>2&#45;&gt;13</title>
<path fill="none" stroke="#0d0d73" stroke-width="0.5" d="M650.5,-275.9C650.5,-265.21 650.5,-251.77 650.5,-239.9"/>
<polygon fill="#0d0d73" stroke="#0d0d73" stroke-width="0.5" points="651.73,-239.77 650.5,-236.27 649.28,-239.77 651.73,-239.77"/>
<text text-anchor="middle" x="664.5" y="-259" font-family="Arial" font-size="10.00" fill="#0d0d73">0.00%</text>
<text text-anchor="middle" x="664.5" y="-248" font-family="Arial" font-size="10.00" fill="#0d0d73">8×</text>
</g>
<!-- 15 -->
<g id="node14" class="node">
<title>15</title>
<polygon fill="#0d0d73" stroke="#0d0d73" points="758.5,-236 688.5,-236 688.5,-184 758.5,-184 758.5,-236"/>
<text text-anchor="middle" x="723.5" y="-224" font-family="Arial" font-size="10.00" fill="#ffffff">writeVolume</text>
<text text-anchor="middle" x="723.5" y="-213" font-family="Arial" font-size="10.00" fill="#ffffff">0.00%</text>
<text text-anchor="middle" x="723.5" y="-202" font-family="Arial" font-size="10.00" fill="#ffffff">(0.00%)</text>
<text text-anchor="middle" x="723.5" y="-191" font-family="Arial" font-size="10.00" fill="#ffffff">1×</text>
</g>
<!-- 2&#45;&gt;15 -->
<g id="edge13" class="edge">
<title>2&#45;&gt;15</title>
<path fill="none" stroke="#0d0d73" stroke-width="0.5" d="M671.89,-275.97C674.86,-273.04 677.81,-269.99 680.5,-267 688.38,-258.25 696.4,-248.18 703.35,-239.01"/>
<polygon fill="#0d0d73" stroke="#0d0d73" stroke-width="0.5" points="704.34,-239.73 705.47,-236.2 702.38,-238.26 704.34,-239.73"/>
<text text-anchor="middle" x="711.5" y="-259" font-family="Arial" font-size="10.00" fill="#0d0d73">0.00%</text>
<text text-anchor="middle" x="711.5" y="-248" font-family="Arial" font-size="10.00" fill="#0d0d73">1×</text>
</g>
</g>
</svg>
