<?xml version="1.0" encoding="UTF-8" standalone="no"?>
<!DOCTYPE svg PUBLIC "-//W3C//DTD SVG 1.1//EN"
 "http://www.w3.org/Graphics/SVG/1.1/DTD/svg11.dtd">
<!-- Generated by graphviz version 2.43.0 (0)
 -->
<!-- Title: %3 Pages: 1 -->
<svg width="979pt" height="325pt"
 viewBox="0.00 0.00 978.50 325.00" xmlns="http://www.w3.org/2000/svg" xmlns:xlink="http://www.w3.org/1999/xlink">
<g id="graph0" class="graph" transform="scale(1 1) rotate(0) translate(4 321)">
<title>%3</title>
<!-- 1 -->
<g id="node1" class="node">
<title>1</title>
<polygon fill="#ff0100" stroke="#ff0100" points="674.5,-317 624.5,-317 624.5,-276 674.5,-276 674.5,-317"/>
<text text-anchor="middle" x="649.5" y="-305" font-family="Arial" font-size="10.00" fill="#ffffff">main</text>
<text text-anchor="middle" x="649.5" y="-294" font-family="Arial" font-size="10.00" fill="#ffffff">99.86%</text>
<text text-anchor="middle" x="649.5" y="-283" font-family="Arial" font-size="10.00" fill="#ffffff">(0.00%)</text>
</g>
<!-- 2 -->
<g id="node2" class="node">
<title>2</title>
<polygon fill="#ff0200" stroke="#ff0200" points="611.5,-236 491.5,-236 491.5,-184 611.5,-184 611.5,-236"/>
<text text-anchor="middle" x="551.5" y="-224" font-family="Arial" font-size="10.00" fill="#ffffff">computeBackProjection</text>
<text text-anchor="middle" x="551.5" y="-213" font-family="Arial" font-size="10.00" fill="#ffffff">99.82%</text>
<text text-anchor="middle" x="551.5" y="-202" font-family="Arial" font-size="10.00" fill="#ffffff">(0.68%)</text>
<text text-anchor="middle" x="551.5" y="-191" font-family="Arial" font-size="10.00" fill="#ffffff">7×</text>
</g>
<!-- 1&#45;&gt;2 -->
<g id="edge1" class="edge">
<title>1&#45;&gt;2</title>
<path fill="none" stroke="#ff0200" stroke-width="3.99" d="M624.15,-275.77C620.55,-272.87 616.91,-269.88 613.5,-267 604.51,-259.39 594.98,-250.98 586.16,-243.03"/>
<polygon fill="#ff0200" stroke="#ff0200" stroke-width="3.99" points="588.39,-240.32 578.63,-236.2 583.69,-245.51 588.39,-240.32"/>
<text text-anchor="middle" x="630.5" y="-259" font-family="Arial" font-size="10.00" fill="#ff0200">99.82%</text>
<text text-anchor="middle" x="630.5" y="-248" font-family="Arial" font-size="10.00" fill="#ff0200">7×</text>
</g>
<!-- 14 -->
<g id="node3" class="node">
<title>14</title>
<polygon fill="#0d0d73" stroke="#0d0d73" points="678.5,-236 620.5,-236 620.5,-184 678.5,-184 678.5,-236"/>
<text text-anchor="middle" x="649.5" y="-224" font-family="Arial" font-size="10.00" fill="#ffffff">readPGM</text>
<text text-anchor="middle" x="649.5" y="-213" font-family="Arial" font-size="10.00" fill="#ffffff">0.05%</text>
<text text-anchor="middle" x="649.5" y="-202" font-family="Arial" font-size="10.00" fill="#ffffff">(0.05%)</text>
<text text-anchor="middle" x="649.5" y="-191" font-family="Arial" font-size="10.00" fill="#ffffff">8×</text>
</g>
<!-- 1&#45;&gt;14 -->
<g id="edge2" class="edge">
<title>1&#45;&gt;14</title>
<path fill="none" stroke="#0d0d73" stroke-width="0.5" d="M649.5,-275.9C649.5,-265.21 649.5,-251.77 649.5,-239.9"/>
<polygon fill="#0d0d73" stroke="#0d0d73" stroke-width="0.5" points="650.73,-239.77 649.5,-236.27 648.28,-239.77 650.73,-239.77"/>
<text text-anchor="middle" x="663.5" y="-259" font-family="Arial" font-size="10.00" fill="#0d0d73">0.05%</text>
<text text-anchor="middle" x="663.5" y="-248" font-family="Arial" font-size="10.00" fill="#0d0d73">8×</text>
</g>
<!-- 16 -->
<g id="node4" class="node">
<title>16</title>
<polygon fill="#0d0d73" stroke="#0d0d73" points="757.5,-236 687.5,-236 687.5,-184 757.5,-184 757.5,-236"/>
<text text-anchor="middle" x="722.5" y="-224" font-family="Arial" font-size="10.00" fill="#ffffff">writeVolume</text>
<text text-anchor="middle" x="722.5" y="-213" font-family="Arial" font-size="10.00" fill="#ffffff">0.00%</text>
<text text-anchor="middle" x="722.5" y="-202" font-family="Arial" font-size="10.00" fill="#ffffff">(0.00%)</text>
<text text-anchor="middle" x="722.5" y="-191" font-family="Arial" font-size="10.00" fill="#ffffff">1×</text>
</g>
<!-- 1&#45;&gt;16 -->
<g id="edge3" class="edge">
<title>1&#45;&gt;16</title>
<path fill="none" stroke="#0d0d73" stroke-width="0.5" d="M670.89,-275.97C673.86,-273.04 676.81,-269.99 679.5,-267 687.38,-258.25 695.4,-248.18 702.35,-239.01"/>
<polygon fill="#0d0d73" stroke="#0d0d73" stroke-width="0.5" points="703.34,-239.73 704.47,-236.2 701.38,-238.26 703.34,-239.73"/>
<text text-anchor="middle" x="710.5" y="-259" font-family="Arial" font-size="10.00" fill="#0d0d73">0.00%</text>
<text text-anchor="middle" x="710.5" y="-248" font-family="Arial" font-size="10.00" fill="#0d0d73">1×</text>
</g>
<!-- 3 -->
<g id="node5" class="node">
<title>3</title>
<polygon fill="#34be09" stroke="#34be09" points="101,-144 0,-144 0,-92 101,-92 101,-144"/>
<text text-anchor="middle" x="50.5" y="-132" font-family="Arial" font-size="10.00" fill="#ffffff">computeAbsorption</text>
<text text-anchor="middle" x="50.5" y="-121" font-family="Arial" font-size="10.00" fill="#ffffff">55.99%</text>
<text text-anchor="middle" x="50.5" y="-110" font-family="Arial" font-size="10.00" fill="#ffffff">(55.93%)</text>
<text text-anchor="middle" x="50.5" y="-99" font-family="Arial" font-size="10.00" fill="#ffffff">5289121×</text>
</g>
<!-- 2&#45;&gt;3 -->
<g id="edge4" class="edge">
<title>2&#45;&gt;3</title>
<path fill="none" stroke="#34be09" stroke-width="2.24" d="M491.23,-208.58C417.82,-206.9 290.49,-200.17 184.5,-175 158.16,-168.74 130.33,-157.88 106.91,-147.38"/>
<polygon fill="#34be09" stroke="#34be09" stroke-width="2.24" points="107.7,-144.86 99.79,-144.14 105.52,-149.63 107.7,-144.86"/>
<text text-anchor="middle" x="206" y="-167" font-family="Arial" font-size="10.00" fill="#34be09">55.99%</text>
<text text-anchor="middle" x="206" y="-156" font-family="Arial" font-size="10.00" fill="#34be09">5289121×</text>
</g>
<!-- 4 -->
<g id="node6" class="node">
<title>4</title>
<polygon fill="#0c7b8f" stroke="#0c7b8f" points="208.5,-144 110.5,-144 110.5,-92 208.5,-92 208.5,-144"/>
<text text-anchor="middle" x="159.5" y="-132" font-family="Arial" font-size="10.00" fill="#ffffff">getAllIntersections</text>
<text text-anchor="middle" x="159.5" y="-121" font-family="Arial" font-size="10.00" fill="#ffffff">21.33%</text>
<text text-anchor="middle" x="159.5" y="-110" font-family="Arial" font-size="10.00" fill="#ffffff">(21.26%)</text>
<text text-anchor="middle" x="159.5" y="-99" font-family="Arial" font-size="10.00" fill="#ffffff">5289121×</text>
</g>
<!-- 2&#45;&gt;4 -->
<g id="edge5" class="edge">
<title>2&#45;&gt;4</title>
<path fill="none" stroke="#0c7b8f" stroke-width="0.85" d="M491.41,-205.91C437.11,-202.03 355.38,-193.48 286.5,-175 260.87,-168.12 233.78,-156.8 211.24,-146.12"/>
<polygon fill="#0c7b8f" stroke="#0c7b8f" stroke-width="0.85" points="211.93,-144.67 207.08,-144.14 210.54,-147.57 211.93,-144.67"/>
<text text-anchor="middle" x="308" y="-167" font-family="Arial" font-size="10.00" fill="#0c7b8f">21.33%</text>
<text text-anchor="middle" x="308" y="-156" font-family="Arial" font-size="10.00" fill="#0c7b8f">5289121×</text>
</g>
<!-- 5 -->
<g id="node7" class="node">
<title>5</title>
<polygon fill="#0c728c" stroke="#0c728c" points="317.5,-144 217.5,-144 217.5,-92 317.5,-92 317.5,-144"/>
<text text-anchor="middle" x="267.5" y="-132" font-family="Arial" font-size="10.00" fill="#ffffff">mergeIntersections</text>
<text text-anchor="middle" x="267.5" y="-121" font-family="Arial" font-size="10.00" fill="#ffffff">19.76%</text>
<text text-anchor="middle" x="267.5" y="-110" font-family="Arial" font-size="10.00" fill="#ffffff">(19.76%)</text>
<text text-anchor="middle" x="267.5" y="-99" font-family="Arial" font-size="10.00" fill="#ffffff">5289121×</text>
</g>
<!-- 2&#45;&gt;5 -->
<g id="edge6" class="edge">
<title>2&#45;&gt;5</title>
<path fill="none" stroke="#0c728c" stroke-width="0.79" d="M491.46,-200.59C458.98,-195.12 418.47,-186.77 383.5,-175 360.85,-167.37 336.89,-156.36 316.67,-146.11"/>
<polygon fill="#0c728c" stroke="#0c728c" stroke-width="0.79" points="317.3,-144.7 312.68,-144.07 315.89,-147.44 317.3,-144.7"/>
<text text-anchor="middle" x="405" y="-167" font-family="Arial" font-size="10.00" fill="#0c728c">19.76%</text>
<text text-anchor="middle" x="405" y="-156" font-family="Arial" font-size="10.00" fill="#0c728c">5289121×</text>
</g>
<!-- 6 -->
<g id="node8" class="node">
<title>6</title>
<polygon fill="#0d1074" stroke="#0d1074" points="438,-144 327,-144 327,-92 438,-92 438,-144"/>
<text text-anchor="middle" x="382.5" y="-132" font-family="Arial" font-size="10.00" fill="#ffffff">getSidesIntersections</text>
<text text-anchor="middle" x="382.5" y="-121" font-family="Arial" font-size="10.00" fill="#ffffff">0.69%</text>
<text text-anchor="middle" x="382.5" y="-110" font-family="Arial" font-size="10.00" fill="#ffffff">(0.45%)</text>
<text text-anchor="middle" x="382.5" y="-99" font-family="Arial" font-size="10.00" fill="#ffffff">9680832×</text>
</g>
<!-- 2&#45;&gt;6 -->
<g id="edge7" class="edge">
<title>2&#45;&gt;6</title>
<path fill="none" stroke="#0d1074" stroke-width="0.5" d="M491.24,-188.3C481.45,-184.28 471.56,-179.81 462.5,-175 447.05,-166.8 431.05,-156.11 417.46,-146.27"/>
<polygon fill="#0d1074" stroke="#0d1074" stroke-width="0.5" points="417.97,-145.13 414.42,-144.06 416.53,-147.11 417.97,-145.13"/>
<text text-anchor="middle" x="484" y="-167" font-family="Arial" font-size="10.00" fill="#0d1074">0.69%</text>
<text text-anchor="middle" x="484" y="-156" font-family="Arial" font-size="10.00" fill="#0d1074">9680832×</text>
</g>
<!-- 8 -->
<g id="node9" class="node">
<title>8</title>
<polygon fill="#0d0f73" stroke="#0d0f73" points="541.5,-144 447.5,-144 447.5,-92 541.5,-92 541.5,-144"/>
<text text-anchor="middle" x="494.5" y="-132" font-family="Arial" font-size="10.00" fill="#ffffff">getPlanesRanges</text>
<text text-anchor="middle" x="494.5" y="-121" font-family="Arial" font-size="10.00" fill="#ffffff">0.49%</text>
<text text-anchor="middle" x="494.5" y="-110" font-family="Arial" font-size="10.00" fill="#ffffff">(0.36%)</text>
<text text-anchor="middle" x="494.5" y="-99" font-family="Arial" font-size="10.00" fill="#ffffff">5289121×</text>
</g>
<!-- 2&#45;&gt;8 -->
<g id="edge8" class="edge">
<title>2&#45;&gt;8</title>
<path fill="none" stroke="#0d0f73" stroke-width="0.5" d="M525.22,-183.87C522.8,-180.99 520.51,-178.01 518.5,-175 512.91,-166.61 508.16,-156.71 504.39,-147.58"/>
<polygon fill="#0d0f73" stroke="#0d0f73" stroke-width="0.5" points="505.5,-147.04 503.05,-144.26 503.22,-147.96 505.5,-147.04"/>
<text text-anchor="middle" x="540" y="-167" font-family="Arial" font-size="10.00" fill="#0d0f73">0.49%</text>
<text text-anchor="middle" x="540" y="-156" font-family="Arial" font-size="10.00" fill="#0d0f73">5289121×</text>
</g>
<!-- 9 -->
<g id="node10" class="node">
<title>9</title>
<polygon fill="#0d0e73" stroke="#0d0e73" points="610,-144 551,-144 551,-92 610,-92 610,-144"/>
<text text-anchor="middle" x="580.5" y="-132" font-family="Arial" font-size="10.00" fill="#ffffff">getAMin</text>
<text text-anchor="middle" x="580.5" y="-121" font-family="Arial" font-size="10.00" fill="#ffffff">0.36%</text>
<text text-anchor="middle" x="580.5" y="-110" font-family="Arial" font-size="10.00" fill="#ffffff">(0.36%)</text>
<text text-anchor="middle" x="580.5" y="-99" font-family="Arial" font-size="10.00" fill="#ffffff">9680832×</text>
</g>
<!-- 2&#45;&gt;9 -->
<g id="edge9" class="edge">
<title>2&#45;&gt;9</title>
<path fill="none" stroke="#0d0e73" stroke-width="0.5" d="M559.58,-183.93C563.19,-172.71 567.48,-159.42 571.22,-147.8"/>
<polygon fill="#0d0e73" stroke="#0d0e73" stroke-width="0.5" points="572.46,-147.95 572.36,-144.25 570.13,-147.2 572.46,-147.95"/>
<text text-anchor="middle" x="591" y="-167" font-family="Arial" font-size="10.00" fill="#0d0e73">0.36%</text>
<text text-anchor="middle" x="591" y="-156" font-family="Arial" font-size="10.00" fill="#0d0e73">9680832×</text>
</g>
<!-- 10 -->
<g id="node11" class="node">
<title>10</title>
<polygon fill="#0d0e73" stroke="#0d0e73" points="706,-144 619,-144 619,-92 706,-92 706,-144"/>
<text text-anchor="middle" x="662.5" y="-132" font-family="Arial" font-size="10.00" fill="#ffffff">getPixelPosition</text>
<text text-anchor="middle" x="662.5" y="-121" font-family="Arial" font-size="10.00" fill="#ffffff">0.32%</text>
<text text-anchor="middle" x="662.5" y="-110" font-family="Arial" font-size="10.00" fill="#ffffff">(0.32%)</text>
<text text-anchor="middle" x="662.5" y="-99" font-family="Arial" font-size="10.00" fill="#ffffff">9680832×</text>
</g>
<!-- 2&#45;&gt;10 -->
<g id="edge10" class="edge">
<title>2&#45;&gt;10</title>
<path fill="none" stroke="#0d0e73" stroke-width="0.5" d="M602.1,-183.9C606.43,-181.1 610.63,-178.12 614.5,-175 624.44,-166.99 633.91,-156.72 641.78,-147.18"/>
<polygon fill="#0d0e73" stroke="#0d0e73" stroke-width="0.5" points="642.91,-147.73 644.17,-144.24 641.01,-146.18 642.91,-147.73"/>
<text text-anchor="middle" x="658" y="-167" font-family="Arial" font-size="10.00" fill="#0d0e73">0.32%</text>
<text text-anchor="middle" x="658" y="-156" font-family="Arial" font-size="10.00" fill="#0d0e73">9680832×</text>
</g>
<!-- 11 -->
<g id="node12" class="node">
<title>11</title>
<polygon fill="#0d0d73" stroke="#0d0d73" points="774,-144 715,-144 715,-92 774,-92 774,-144"/>
<text text-anchor="middle" x="744.5" y="-132" font-family="Arial" font-size="10.00" fill="#ffffff">getAMax</text>
<text text-anchor="middle" x="744.5" y="-121" font-family="Arial" font-size="10.00" fill="#ffffff">0.14%</text>
<text text-anchor="middle" x="744.5" y="-110" font-family="Arial" font-size="10.00" fill="#ffffff">(0.14%)</text>
<text text-anchor="middle" x="744.5" y="-99" font-family="Arial" font-size="10.00" fill="#ffffff">9680832×</text>
</g>
<!-- 2&#45;&gt;11 -->
<g id="edge11" class="edge">
<title>2&#45;&gt;11</title>
<path fill="none" stroke="#0d0d73" stroke-width="0.5" d="M611.67,-185.04C612.95,-184.68 614.23,-184.33 615.5,-184 644.16,-176.56 654.6,-187.37 681.5,-175 695.84,-168.4 709.28,-157.43 720.03,-146.93"/>
<polygon fill="#0d0d73" stroke="#0d0d73" stroke-width="0.5" points="721.09,-147.61 722.71,-144.27 719.36,-145.87 721.09,-147.61"/>
<text text-anchor="middle" x="735" y="-167" font-family="Arial" font-size="10.00" fill="#0d0d73">0.14%</text>
<text text-anchor="middle" x="735" y="-156" font-family="Arial" font-size="10.00" fill="#0d0d73">9680832×</text>
</g>
<!-- 13 -->
<g id="node13" class="node">
<title>13</title>
<polygon fill="#0d0d73" stroke="#0d0d73" points="865.5,-144 783.5,-144 783.5,-92 865.5,-92 865.5,-144"/>
<text text-anchor="middle" x="824.5" y="-132" font-family="Arial" font-size="10.00" fill="#ffffff">getParallelAxis</text>
<text text-anchor="middle" x="824.5" y="-121" font-family="Arial" font-size="10.00" fill="#ffffff">0.05%</text>
<text text-anchor="middle" x="824.5" y="-110" font-family="Arial" font-size="10.00" fill="#ffffff">(0.05%)</text>
<text text-anchor="middle" x="824.5" y="-99" font-family="Arial" font-size="10.00" fill="#ffffff">9680832×</text>
</g>
<!-- 2&#45;&gt;13 -->
<g id="edge12" class="edge">
<title>2&#45;&gt;13</title>
<path fill="none" stroke="#0d0d73" stroke-width="0.5" d="M611.64,-184.91C612.93,-184.59 614.22,-184.28 615.5,-184 646.59,-177.13 728.97,-186.91 758.5,-175 773.92,-168.78 788.34,-157.48 799.74,-146.65"/>
<polygon fill="#0d0d73" stroke="#0d0d73" stroke-width="0.5" points="800.61,-147.52 802.27,-144.2 798.91,-145.75 800.61,-147.52"/>
<text text-anchor="middle" x="813" y="-167" font-family="Arial" font-size="10.00" fill="#0d0d73">0.05%</text>
<text text-anchor="middle" x="813" y="-156" font-family="Arial" font-size="10.00" fill="#0d0d73">9680832×</text>
</g>
<!-- 15 -->
<g id="node14" class="node">
<title>15</title>
<polygon fill="#0d0d73" stroke="#0d0d73" points="970.5,-144 874.5,-144 874.5,-92 970.5,-92 970.5,-144"/>
<text text-anchor="middle" x="922.5" y="-132" font-family="Arial" font-size="10.00" fill="#ffffff">getSourcePosition</text>
<text text-anchor="middle" x="922.5" y="-121" font-family="Arial" font-size="10.00" fill="#ffffff">0.00%</text>
<text text-anchor="middle" x="922.5" y="-110" font-family="Arial" font-size="10.00" fill="#ffffff">(0.00%)</text>
<text text-anchor="middle" x="922.5" y="-99" font-family="Arial" font-size="10.00" fill="#ffffff">7×</text>
</g>
<!-- 2&#45;&gt;15 -->
<g id="edge13" class="edge">
<title>2&#45;&gt;15</title>
<path fill="none" stroke="#0d0d73" stroke-width="0.5" d="M611.63,-184.87C612.92,-184.56 614.22,-184.27 615.5,-184 663.61,-173.92 789.68,-189.94 836.5,-175 855.6,-168.91 874.52,-157.35 889.73,-146.32"/>
<polygon fill="#0d0d73" stroke="#0d0d73" stroke-width="0.5" points="890.62,-147.18 892.72,-144.12 889.17,-145.2 890.62,-147.18"/>
<text text-anchor="middle" x="892.5" y="-167" font-family="Arial" font-size="10.00" fill="#0d0d73">0.00%</text>
<text text-anchor="middle" x="892.5" y="-156" font-family="Arial" font-size="10.00" fill="#0d0d73">7×</text>
</g>
<!-- 7 -->
<g id="node15" class="node">
<title>7</title>
<polygon fill="#0d0f73" stroke="#0d0f73" points="307.5,-52 217.5,-52 217.5,0 307.5,0 307.5,-52"/>
<text text-anchor="middle" x="262.5" y="-40" font-family="Arial" font-size="10.00" fill="#ffffff">getPlanePosition</text>
<text text-anchor="middle" x="262.5" y="-29" font-family="Arial" font-size="10.00" fill="#ffffff">0.50%</text>
<text text-anchor="middle" x="262.5" y="-18" font-family="Arial" font-size="10.00" fill="#ffffff">(0.50%)</text>
<text text-anchor="middle" x="262.5" y="-7" font-family="Arial" font-size="10.00" fill="#ffffff">120965468×</text>
</g>
<!-- 3&#45;&gt;7 -->
<g id="edge14" class="edge">
<title>3&#45;&gt;7</title>
<path fill="none" stroke="#0d0d73" stroke-width="0.5" d="M89.49,-91.98C107.04,-81.44 128.32,-69.64 148.5,-61 169.32,-52.09 193.22,-44.57 213.74,-38.89"/>
<polygon fill="#0d0d73" stroke="#0d0d73" stroke-width="0.5" points="214.22,-40.03 217.27,-37.92 213.57,-37.67 214.22,-40.03"/>
<text text-anchor="middle" x="173" y="-75" font-family="Arial" font-size="10.00" fill="#0d0d73">0.07%</text>
<text text-anchor="middle" x="173" y="-64" font-family="Arial" font-size="10.00" fill="#0d0d73">15867363×</text>
</g>
<!-- 4&#45;&gt;7 -->
<g id="edge15" class="edge">
<title>4&#45;&gt;7</title>
<path fill="none" stroke="#0d0d73" stroke-width="0.5" d="M188.19,-91.93C201.47,-80.32 217.29,-66.5 230.91,-54.6"/>
<polygon fill="#0d0d73" stroke="#0d0d73" stroke-width="0.5" points="231.78,-55.47 233.61,-52.25 230.16,-53.63 231.78,-55.47"/>
<text text-anchor="middle" x="248" y="-75" font-family="Arial" font-size="10.00" fill="#0d0d73">0.06%</text>
<text text-anchor="middle" x="248" y="-64" font-family="Arial" font-size="10.00" fill="#0d0d73">15278387×</text>
</g>
<!-- 6&#45;&gt;7 -->
<g id="edge16" class="edge">
<title>6&#45;&gt;7</title>
<path fill="none" stroke="#0d0e73" stroke-width="0.5" d="M349.07,-91.93C333.6,-80.32 315.17,-66.5 299.3,-54.6"/>
<polygon fill="#0d0e73" stroke="#0d0e73" stroke-width="0.5" points="299.7,-53.37 296.16,-52.25 298.23,-55.33 299.7,-53.37"/>
<text text-anchor="middle" x="362" y="-75" font-family="Arial" font-size="10.00" fill="#0d0e73">0.24%</text>
<text text-anchor="middle" x="362" y="-64" font-family="Arial" font-size="10.00" fill="#0d0e73">58084992×</text>
</g>
<!-- 8&#45;&gt;7 -->
<g id="edge17" class="edge">
<title>8&#45;&gt;7</title>
<path fill="none" stroke="#0d0d73" stroke-width="0.5" d="M452.21,-91.88C433.19,-81.32 410.19,-69.53 388.5,-61 363.58,-51.2 334.81,-43.2 311.07,-37.43"/>
<polygon fill="#0d0d73" stroke="#0d0d73" stroke-width="0.5" points="311.29,-36.22 307.6,-36.59 310.71,-38.6 311.29,-36.22"/>
<text text-anchor="middle" x="458" y="-75" font-family="Arial" font-size="10.00" fill="#0d0d73">0.13%</text>
<text text-anchor="middle" x="458" y="-64" font-family="Arial" font-size="10.00" fill="#0d0d73">31734726×</text>
</g>
</g>
</svg>
