<?xml version="1.0" encoding="UTF-8" standalone="no"?>
<!DOCTYPE svg PUBLIC "-//W3C//DTD SVG 1.1//EN"
 "http://www.w3.org/Graphics/SVG/1.1/DTD/svg11.dtd">
<!-- Generated by graphviz version 2.43.0 (0)
 -->
<!-- Title: %3 Pages: 1 -->
<svg width="1075pt" height="325pt"
 viewBox="0.00 0.00 1074.50 325.00" xmlns="http://www.w3.org/2000/svg" xmlns:xlink="http://www.w3.org/1999/xlink">
<g id="graph0" class="graph" transform="scale(1 1) rotate(0) translate(4 321)">
<title>%3</title>
<!-- 1 -->
<g id="node1" class="node">
<title>1</title>
<polygon fill="#ff0100" stroke="#ff0100" points="742.5,-317 692.5,-317 692.5,-276 742.5,-276 742.5,-317"/>
<text text-anchor="middle" x="717.5" y="-305" font-family="Arial" font-size="10.00" fill="#ffffff">main</text>
<text text-anchor="middle" x="717.5" y="-294" font-family="Arial" font-size="10.00" fill="#ffffff">99.95%</text>
<text text-anchor="middle" x="717.5" y="-283" font-family="Arial" font-size="10.00" fill="#ffffff">(0.00%)</text>
</g>
<!-- 2 -->
<g id="node2" class="node">
<title>2</title>
<polygon fill="#ff0100" stroke="#ff0100" points="630.5,-236 510.5,-236 510.5,-184 630.5,-184 630.5,-236"/>
<text text-anchor="middle" x="570.5" y="-224" font-family="Arial" font-size="10.00" fill="#ffffff">computeBackProjection</text>
<text text-anchor="middle" x="570.5" y="-213" font-family="Arial" font-size="10.00" fill="#ffffff">99.90%</text>
<text text-anchor="middle" x="570.5" y="-202" font-family="Arial" font-size="10.00" fill="#ffffff">(0.90%)</text>
<text text-anchor="middle" x="570.5" y="-191" font-family="Arial" font-size="10.00" fill="#ffffff">10×</text>
</g>
<!-- 1&#45;&gt;2 -->
<g id="edge1" class="edge">
<title>1&#45;&gt;2</title>
<path fill="none" stroke="#ff0100" stroke-width="4" d="M692.37,-283.86C682.06,-278.9 670.08,-272.91 659.5,-267 645.51,-259.19 630.65,-250.15 617.16,-241.65"/>
<polygon fill="#ff0100" stroke="#ff0100" stroke-width="4" points="618.84,-238.56 608.52,-236.15 615.08,-244.47 618.84,-238.56"/>
<text text-anchor="middle" x="676.5" y="-259" font-family="Arial" font-size="10.00" fill="#ff0100">99.90%</text>
<text text-anchor="middle" x="676.5" y="-248" font-family="Arial" font-size="10.00" fill="#ff0100">10×</text>
</g>
<!-- 13 -->
<g id="node3" class="node">
<title>13</title>
<polygon fill="#0d0d73" stroke="#0d0d73" points="719,-236 640,-236 640,-184 719,-184 719,-236"/>
<text text-anchor="middle" x="679.5" y="-224" font-family="Arial" font-size="10.00" fill="#ffffff">readProjection</text>
<text text-anchor="middle" x="679.5" y="-213" font-family="Arial" font-size="10.00" fill="#ffffff">0.05%</text>
<text text-anchor="middle" x="679.5" y="-202" font-family="Arial" font-size="10.00" fill="#ffffff">(0.05%)</text>
<text text-anchor="middle" x="679.5" y="-191" font-family="Arial" font-size="10.00" fill="#ffffff">10×</text>
</g>
<!-- 1&#45;&gt;13 -->
<g id="edge2" class="edge">
<title>1&#45;&gt;13</title>
<path fill="none" stroke="#0d0d73" stroke-width="0.5" d="M708.69,-275.9C703.84,-265.12 697.73,-251.54 692.36,-239.59"/>
<polygon fill="#0d0d73" stroke="#0d0d73" stroke-width="0.5" points="693.42,-238.96 690.86,-236.27 691.18,-239.96 693.42,-238.96"/>
<text text-anchor="middle" x="718.5" y="-259" font-family="Arial" font-size="10.00" fill="#0d0d73">0.05%</text>
<text text-anchor="middle" x="718.5" y="-248" font-family="Arial" font-size="10.00" fill="#0d0d73">10×</text>
</g>
<!-- 17 -->
<g id="node4" class="node">
<title>17</title>
<polygon fill="#0d0d73" stroke="#0d0d73" points="785.5,-236 727.5,-236 727.5,-184 785.5,-184 785.5,-236"/>
<text text-anchor="middle" x="756.5" y="-224" font-family="Arial" font-size="10.00" fill="#ffffff">initTables</text>
<text text-anchor="middle" x="756.5" y="-213" font-family="Arial" font-size="10.00" fill="#ffffff">0.00%</text>
<text text-anchor="middle" x="756.5" y="-202" font-family="Arial" font-size="10.00" fill="#ffffff">(0.00%)</text>
<text text-anchor="middle" x="756.5" y="-191" font-family="Arial" font-size="10.00" fill="#ffffff">1×</text>
</g>
<!-- 1&#45;&gt;17 -->
<g id="edge3" class="edge">
<title>1&#45;&gt;17</title>
<path fill="none" stroke="#0d0d73" stroke-width="0.5" d="M729.81,-275.8C731.47,-272.89 733.08,-269.9 734.5,-267 738.73,-258.38 742.75,-248.74 746.18,-239.91"/>
<polygon fill="#0d0d73" stroke="#0d0d73" stroke-width="0.5" points="747.5,-239.89 747.61,-236.19 745.21,-239.02 747.5,-239.89"/>
<text text-anchor="middle" x="758.5" y="-259" font-family="Arial" font-size="10.00" fill="#0d0d73">0.00%</text>
<text text-anchor="middle" x="758.5" y="-248" font-family="Arial" font-size="10.00" fill="#0d0d73">1×</text>
</g>
<!-- 18 -->
<g id="node5" class="node">
<title>18</title>
<polygon fill="#0d0d73" stroke="#0d0d73" points="864.5,-236 794.5,-236 794.5,-184 864.5,-184 864.5,-236"/>
<text text-anchor="middle" x="829.5" y="-224" font-family="Arial" font-size="10.00" fill="#ffffff">writeVolume</text>
<text text-anchor="middle" x="829.5" y="-213" font-family="Arial" font-size="10.00" fill="#ffffff">0.00%</text>
<text text-anchor="middle" x="829.5" y="-202" font-family="Arial" font-size="10.00" fill="#ffffff">(0.00%)</text>
<text text-anchor="middle" x="829.5" y="-191" font-family="Arial" font-size="10.00" fill="#ffffff">1×</text>
</g>
<!-- 1&#45;&gt;18 -->
<g id="edge4" class="edge">
<title>1&#45;&gt;18</title>
<path fill="none" stroke="#0d0d73" stroke-width="0.5" d="M742.55,-278.05C743.87,-277.32 745.19,-276.64 746.5,-276 758.26,-270.3 763.37,-273.86 774.5,-267 786.59,-259.55 797.95,-248.88 807.17,-238.86"/>
<polygon fill="#0d0d73" stroke="#0d0d73" stroke-width="0.5" points="808.27,-239.46 809.71,-236.05 806.45,-237.82 808.27,-239.46"/>
<text text-anchor="middle" x="814.5" y="-259" font-family="Arial" font-size="10.00" fill="#0d0d73">0.00%</text>
<text text-anchor="middle" x="814.5" y="-248" font-family="Arial" font-size="10.00" fill="#0d0d73">1×</text>
</g>
<!-- 3 -->
<g id="node6" class="node">
<title>3</title>
<polygon fill="#73c908" stroke="#73c908" points="101,-144 0,-144 0,-92 101,-92 101,-144"/>
<text text-anchor="middle" x="50.5" y="-132" font-family="Arial" font-size="10.00" fill="#ffffff">computeAbsorption</text>
<text text-anchor="middle" x="50.5" y="-121" font-family="Arial" font-size="10.00" fill="#ffffff">63.88%</text>
<text text-anchor="middle" x="50.5" y="-110" font-family="Arial" font-size="10.00" fill="#ffffff">(63.88%)</text>
<text text-anchor="middle" x="50.5" y="-99" font-family="Arial" font-size="10.00" fill="#ffffff">9480056×</text>
</g>
<!-- 2&#45;&gt;3 -->
<g id="edge5" class="edge">
<title>2&#45;&gt;3</title>
<path fill="none" stroke="#73c908" stroke-width="2.56" d="M510.25,-209.94C431.89,-209.78 291.33,-204.75 175.5,-175 150.98,-168.7 125.23,-157.96 103.52,-147.55"/>
<polygon fill="#73c908" stroke="#73c908" stroke-width="2.56" points="104.74,-145.03 96.32,-144.05 102.29,-150.07 104.74,-145.03"/>
<text text-anchor="middle" x="197" y="-167" font-family="Arial" font-size="10.00" fill="#73c908">63.88%</text>
<text text-anchor="middle" x="197" y="-156" font-family="Arial" font-size="10.00" fill="#73c908">9480056×</text>
</g>
<!-- 4 -->
<g id="node7" class="node">
<title>4</title>
<polygon fill="#0d4983" stroke="#0d4983" points="210.5,-144 110.5,-144 110.5,-92 210.5,-92 210.5,-144"/>
<text text-anchor="middle" x="160.5" y="-132" font-family="Arial" font-size="10.00" fill="#ffffff">mergeIntersections</text>
<text text-anchor="middle" x="160.5" y="-121" font-family="Arial" font-size="10.00" fill="#ffffff">12.82%</text>
<text text-anchor="middle" x="160.5" y="-110" font-family="Arial" font-size="10.00" fill="#ffffff">(12.82%)</text>
<text text-anchor="middle" x="160.5" y="-99" font-family="Arial" font-size="10.00" fill="#ffffff">9301580×</text>
</g>
<!-- 2&#45;&gt;4 -->
<g id="edge6" class="edge">
<title>2&#45;&gt;4</title>
<path fill="none" stroke="#0d4983" stroke-width="0.51" d="M510.39,-208.55C448.7,-206.63 350.55,-199.5 269.5,-175 246.88,-168.16 223.37,-156.72 204,-145.95"/>
<polygon fill="#0d4983" stroke="#0d4983" stroke-width="0.51" points="204.44,-144.75 200.68,-144.09 203.2,-146.95 204.44,-144.75"/>
<text text-anchor="middle" x="291" y="-167" font-family="Arial" font-size="10.00" fill="#0d4983">12.82%</text>
<text text-anchor="middle" x="291" y="-156" font-family="Arial" font-size="10.00" fill="#0d4983">9301580×</text>
</g>
<!-- 5 -->
<g id="node8" class="node">
<title>5</title>
<polygon fill="#0d4281" stroke="#0d4281" points="295.5,-144 219.5,-144 219.5,-92 295.5,-92 295.5,-144"/>
<text text-anchor="middle" x="257.5" y="-132" font-family="Arial" font-size="10.00" fill="#ffffff">isArraySorted</text>
<text text-anchor="middle" x="257.5" y="-121" font-family="Arial" font-size="10.00" fill="#ffffff">11.38%</text>
<text text-anchor="middle" x="257.5" y="-110" font-family="Arial" font-size="10.00" fill="#ffffff">(11.38%)</text>
<text text-anchor="middle" x="257.5" y="-99" font-family="Arial" font-size="10.00" fill="#ffffff">37883993×</text>
</g>
<!-- 2&#45;&gt;5 -->
<g id="edge7" class="edge">
<title>2&#45;&gt;5</title>
<path fill="none" stroke="#0d4281" stroke-width="0.5" d="M510.36,-204.08C467.98,-199.44 410.3,-190.76 361.5,-175 339.73,-167.97 317.19,-156.43 298.68,-145.65"/>
<polygon fill="#0d4281" stroke="#0d4281" stroke-width="0.5" points="299.15,-144.51 295.51,-143.79 297.91,-146.62 299.15,-144.51"/>
<text text-anchor="middle" x="386" y="-167" font-family="Arial" font-size="10.00" fill="#0d4281">11.38%</text>
<text text-anchor="middle" x="386" y="-156" font-family="Arial" font-size="10.00" fill="#0d4281">37883993×</text>
</g>
<!-- 6 -->
<g id="node9" class="node">
<title>6</title>
<polygon fill="#0d3a7f" stroke="#0d3a7f" points="402.5,-144 304.5,-144 304.5,-92 402.5,-92 402.5,-144"/>
<text text-anchor="middle" x="353.5" y="-132" font-family="Arial" font-size="10.00" fill="#ffffff">getAllIntersections</text>
<text text-anchor="middle" x="353.5" y="-121" font-family="Arial" font-size="10.00" fill="#ffffff">9.79%</text>
<text text-anchor="middle" x="353.5" y="-110" font-family="Arial" font-size="10.00" fill="#ffffff">(9.73%)</text>
<text text-anchor="middle" x="353.5" y="-99" font-family="Arial" font-size="10.00" fill="#ffffff">9037762×</text>
</g>
<!-- 2&#45;&gt;6 -->
<g id="edge8" class="edge">
<title>2&#45;&gt;6</title>
<path fill="none" stroke="#0d3a7f" stroke-width="0.5" d="M510.31,-194.09C492.09,-188.86 472.22,-182.4 454.5,-175 435.07,-166.89 414.59,-156.01 397.19,-146"/>
<polygon fill="#0d3a7f" stroke="#0d3a7f" stroke-width="0.5" points="397.39,-144.7 393.75,-144.01 396.17,-146.82 397.39,-144.7"/>
<text text-anchor="middle" x="476" y="-167" font-family="Arial" font-size="10.00" fill="#0d3a7f">9.79%</text>
<text text-anchor="middle" x="476" y="-156" font-family="Arial" font-size="10.00" fill="#0d3a7f">9037762×</text>
</g>
<!-- 7 -->
<g id="node10" class="node">
<title>7</title>
<polygon fill="#0d0e73" stroke="#0d0e73" points="505.5,-144 411.5,-144 411.5,-92 505.5,-92 505.5,-144"/>
<text text-anchor="middle" x="458.5" y="-132" font-family="Arial" font-size="10.00" fill="#ffffff">getPlanesRanges</text>
<text text-anchor="middle" x="458.5" y="-121" font-family="Arial" font-size="10.00" fill="#ffffff">0.39%</text>
<text text-anchor="middle" x="458.5" y="-110" font-family="Arial" font-size="10.00" fill="#ffffff">(0.39%)</text>
<text text-anchor="middle" x="458.5" y="-99" font-family="Arial" font-size="10.00" fill="#ffffff">9520577×</text>
</g>
<!-- 2&#45;&gt;7 -->
<g id="edge9" class="edge">
<title>2&#45;&gt;7</title>
<path fill="none" stroke="#0d0e73" stroke-width="0.5" d="M536.94,-183.93C533.06,-180.95 529.18,-177.92 525.5,-175 514.01,-165.87 501.63,-155.64 490.68,-146.44"/>
<polygon fill="#0d0e73" stroke="#0d0e73" stroke-width="0.5" points="491.39,-145.44 487.93,-144.13 489.82,-147.32 491.39,-145.44"/>
<text text-anchor="middle" x="547" y="-167" font-family="Arial" font-size="10.00" fill="#0d0e73">0.39%</text>
<text text-anchor="middle" x="547" y="-156" font-family="Arial" font-size="10.00" fill="#0d0e73">9520577×</text>
</g>
<!-- 8 -->
<g id="node11" class="node">
<title>8</title>
<polygon fill="#0d0e73" stroke="#0d0e73" points="626,-144 515,-144 515,-92 626,-92 626,-144"/>
<text text-anchor="middle" x="570.5" y="-132" font-family="Arial" font-size="10.00" fill="#ffffff">getSidesIntersections</text>
<text text-anchor="middle" x="570.5" y="-121" font-family="Arial" font-size="10.00" fill="#ffffff">0.28%</text>
<text text-anchor="middle" x="570.5" y="-110" font-family="Arial" font-size="10.00" fill="#ffffff">(0.28%)</text>
<text text-anchor="middle" x="570.5" y="-99" font-family="Arial" font-size="10.00" fill="#ffffff">17369864×</text>
</g>
<!-- 2&#45;&gt;8 -->
<g id="edge10" class="edge">
<title>2&#45;&gt;8</title>
<path fill="none" stroke="#0d0e73" stroke-width="0.5" d="M570.5,-183.93C570.5,-172.71 570.5,-159.42 570.5,-147.8"/>
<polygon fill="#0d0e73" stroke="#0d0e73" stroke-width="0.5" points="571.73,-147.75 570.5,-144.25 569.28,-147.75 571.73,-147.75"/>
<text text-anchor="middle" x="595" y="-167" font-family="Arial" font-size="10.00" fill="#0d0e73">0.28%</text>
<text text-anchor="middle" x="595" y="-156" font-family="Arial" font-size="10.00" fill="#0d0e73">17369864×</text>
</g>
<!-- 9 -->
<g id="node12" class="node">
<title>9</title>
<polygon fill="#0d0e73" stroke="#0d0e73" points="700,-144 635,-144 635,-92 700,-92 700,-144"/>
<text text-anchor="middle" x="667.5" y="-132" font-family="Arial" font-size="10.00" fill="#ffffff">getAMin</text>
<text text-anchor="middle" x="667.5" y="-121" font-family="Arial" font-size="10.00" fill="#ffffff">0.22%</text>
<text text-anchor="middle" x="667.5" y="-110" font-family="Arial" font-size="10.00" fill="#ffffff">(0.22%)</text>
<text text-anchor="middle" x="667.5" y="-99" font-family="Arial" font-size="10.00" fill="#ffffff">17679154×</text>
</g>
<!-- 2&#45;&gt;9 -->
<g id="edge11" class="edge">
<title>2&#45;&gt;9</title>
<path fill="none" stroke="#0d0e73" stroke-width="0.5" d="M610.62,-183.93C614.42,-181.07 618.11,-178.07 621.5,-175 630.72,-166.66 639.67,-156.42 647.19,-146.98"/>
<polygon fill="#0d0e73" stroke="#0d0e73" stroke-width="0.5" points="648.27,-147.59 649.47,-144.09 646.35,-146.08 648.27,-147.59"/>
<text text-anchor="middle" x="667" y="-167" font-family="Arial" font-size="10.00" fill="#0d0e73">0.22%</text>
<text text-anchor="middle" x="667" y="-156" font-family="Arial" font-size="10.00" fill="#0d0e73">17679154×</text>
</g>
<!-- 10 -->
<g id="node13" class="node">
<title>10</title>
<polygon fill="#0d0d73" stroke="#0d0d73" points="774,-144 709,-144 709,-92 774,-92 774,-144"/>
<text text-anchor="middle" x="741.5" y="-132" font-family="Arial" font-size="10.00" fill="#ffffff">getAMax</text>
<text text-anchor="middle" x="741.5" y="-121" font-family="Arial" font-size="10.00" fill="#ffffff">0.12%</text>
<text text-anchor="middle" x="741.5" y="-110" font-family="Arial" font-size="10.00" fill="#ffffff">(0.12%)</text>
<text text-anchor="middle" x="741.5" y="-99" font-family="Arial" font-size="10.00" fill="#ffffff">17816843×</text>
</g>
<!-- 2&#45;&gt;10 -->
<g id="edge12" class="edge">
<title>2&#45;&gt;10</title>
<path fill="none" stroke="#0d0d73" stroke-width="0.5" d="M630.55,-185.39C632.21,-184.9 633.86,-184.44 635.5,-184 660.71,-177.28 670.71,-187.69 693.5,-175 705.46,-168.34 715.81,-157.47 723.8,-147.07"/>
<polygon fill="#0d0d73" stroke="#0d0d73" stroke-width="0.5" points="724.87,-147.69 725.99,-144.15 722.91,-146.22 724.87,-147.69"/>
<text text-anchor="middle" x="743" y="-167" font-family="Arial" font-size="10.00" fill="#0d0d73">0.12%</text>
<text text-anchor="middle" x="743" y="-156" font-family="Arial" font-size="10.00" fill="#0d0d73">17816843×</text>
</g>
<!-- 11 -->
<g id="node14" class="node">
<title>11</title>
<polygon fill="#0d0d73" stroke="#0d0d73" points="870,-144 783,-144 783,-92 870,-92 870,-144"/>
<text text-anchor="middle" x="826.5" y="-132" font-family="Arial" font-size="10.00" fill="#ffffff">getPixelPosition</text>
<text text-anchor="middle" x="826.5" y="-121" font-family="Arial" font-size="10.00" fill="#ffffff">0.07%</text>
<text text-anchor="middle" x="826.5" y="-110" font-family="Arial" font-size="10.00" fill="#ffffff">(0.07%)</text>
<text text-anchor="middle" x="826.5" y="-99" font-family="Arial" font-size="10.00" fill="#ffffff">17395276×</text>
</g>
<!-- 2&#45;&gt;11 -->
<g id="edge13" class="edge">
<title>2&#45;&gt;11</title>
<path fill="none" stroke="#0d0d73" stroke-width="0.5" d="M630.51,-185.19C632.18,-184.76 633.85,-184.36 635.5,-184 664.64,-177.57 742.27,-187.22 769.5,-175 783.38,-168.77 795.84,-157.6 805.53,-146.86"/>
<polygon fill="#0d0d73" stroke="#0d0d73" stroke-width="0.5" points="806.54,-147.57 807.94,-144.14 804.7,-145.95 806.54,-147.57"/>
<text text-anchor="middle" x="823" y="-167" font-family="Arial" font-size="10.00" fill="#0d0d73">0.07%</text>
<text text-anchor="middle" x="823" y="-156" font-family="Arial" font-size="10.00" fill="#0d0d73">17395276×</text>
</g>
<!-- 15 -->
<g id="node15" class="node">
<title>15</title>
<polygon fill="#0d0d73" stroke="#0d0d73" points="961.5,-144 879.5,-144 879.5,-92 961.5,-92 961.5,-144"/>
<text text-anchor="middle" x="920.5" y="-132" font-family="Arial" font-size="10.00" fill="#ffffff">getParallelAxis</text>
<text text-anchor="middle" x="920.5" y="-121" font-family="Arial" font-size="10.00" fill="#ffffff">0.03%</text>
<text text-anchor="middle" x="920.5" y="-110" font-family="Arial" font-size="10.00" fill="#ffffff">(0.03%)</text>
<text text-anchor="middle" x="920.5" y="-99" font-family="Arial" font-size="10.00" fill="#ffffff">17238377×</text>
</g>
<!-- 2&#45;&gt;15 -->
<g id="edge14" class="edge">
<title>2&#45;&gt;15</title>
<path fill="none" stroke="#0d0d73" stroke-width="0.5" d="M630.85,-185.05C632.41,-184.67 633.96,-184.32 635.5,-184 682.1,-174.33 804.87,-191.54 849.5,-175 865.92,-168.91 881.52,-157.5 893.88,-146.55"/>
<polygon fill="#0d0d73" stroke="#0d0d73" stroke-width="0.5" points="894.85,-147.33 896.63,-144.08 893.21,-145.51 894.85,-147.33"/>
<text text-anchor="middle" x="909" y="-167" font-family="Arial" font-size="10.00" fill="#0d0d73">0.03%</text>
<text text-anchor="middle" x="909" y="-156" font-family="Arial" font-size="10.00" fill="#0d0d73">17238377×</text>
</g>
<!-- 16 -->
<g id="node16" class="node">
<title>16</title>
<polygon fill="#0d0d73" stroke="#0d0d73" points="1066.5,-144 970.5,-144 970.5,-92 1066.5,-92 1066.5,-144"/>
<text text-anchor="middle" x="1018.5" y="-132" font-family="Arial" font-size="10.00" fill="#ffffff">getSourcePosition</text>
<text text-anchor="middle" x="1018.5" y="-121" font-family="Arial" font-size="10.00" fill="#ffffff">0.02%</text>
<text text-anchor="middle" x="1018.5" y="-110" font-family="Arial" font-size="10.00" fill="#ffffff">(0.02%)</text>
<text text-anchor="middle" x="1018.5" y="-99" font-family="Arial" font-size="10.00" fill="#ffffff">11×</text>
</g>
<!-- 2&#45;&gt;16 -->
<g id="edge15" class="edge">
<title>2&#45;&gt;16</title>
<path fill="none" stroke="#0d0d73" stroke-width="0.5" d="M630.85,-185.03C632.41,-184.65 633.96,-184.31 635.5,-184 700.89,-170.84 872.02,-195.46 935.5,-175 954.11,-169 972.4,-157.46 987.04,-146.41"/>
<polygon fill="#0d0d73" stroke="#0d0d73" stroke-width="0.5" points="987.89,-147.3 989.92,-144.2 986.4,-145.36 987.89,-147.3"/>
<text text-anchor="middle" x="990.5" y="-167" font-family="Arial" font-size="10.00" fill="#0d0d73">0.02%</text>
<text text-anchor="middle" x="990.5" y="-156" font-family="Arial" font-size="10.00" fill="#0d0d73">11×</text>
</g>
<!-- 12 -->
<g id="node17" class="node">
<title>12</title>
<polygon fill="#0d0d73" stroke="#0d0d73" points="398.5,-52 308.5,-52 308.5,0 398.5,0 398.5,-52"/>
<text text-anchor="middle" x="353.5" y="-40" font-family="Arial" font-size="10.00" fill="#ffffff">getPlanePosition</text>
<text text-anchor="middle" x="353.5" y="-29" font-family="Arial" font-size="10.00" fill="#ffffff">0.07%</text>
<text text-anchor="middle" x="353.5" y="-18" font-family="Arial" font-size="10.00" fill="#ffffff">(0.07%)</text>
<text text-anchor="middle" x="353.5" y="-7" font-family="Arial" font-size="10.00" fill="#ffffff">27587707×</text>
</g>
<!-- 6&#45;&gt;12 -->
<g id="edge16" class="edge">
<title>6&#45;&gt;12</title>
<path fill="none" stroke="#0d0d73" stroke-width="0.5" d="M353.5,-91.93C353.5,-80.71 353.5,-67.42 353.5,-55.8"/>
<polygon fill="#0d0d73" stroke="#0d0d73" stroke-width="0.5" points="354.73,-55.75 353.5,-52.25 352.28,-55.75 354.73,-55.75"/>
<text text-anchor="middle" x="378" y="-75" font-family="Arial" font-size="10.00" fill="#0d0d73">0.07%</text>
<text text-anchor="middle" x="378" y="-64" font-family="Arial" font-size="10.00" fill="#0d0d73">27587707×</text>
</g>
<!-- 14 -->
<g id="node18" class="node">
<title>14</title>
<polygon fill="#0d0d73" stroke="#0d0d73" points="801.5,-317 751.5,-317 751.5,-276 801.5,-276 801.5,-317"/>
<text text-anchor="middle" x="776.5" y="-305" font-family="Arial" font-size="10.00" fill="#ffffff">_init</text>
<text text-anchor="middle" x="776.5" y="-294" font-family="Arial" font-size="10.00" fill="#ffffff">0.05%</text>
<text text-anchor="middle" x="776.5" y="-283" font-family="Arial" font-size="10.00" fill="#ffffff">(0.05%)</text>
</g>
</g>
</svg>
