<?xml version="1.0" encoding="UTF-8" standalone="no"?>
<!DOCTYPE svg PUBLIC "-//W3C//DTD SVG 1.1//EN"
 "http://www.w3.org/Graphics/SVG/1.1/DTD/svg11.dtd">
<!-- Generated by graphviz version 2.43.0 (0)
 -->
<!-- Title: %3 Pages: 1 -->
<svg width="1075pt" height="325pt"
 viewBox="0.00 0.00 1074.50 325.00" xmlns="http://www.w3.org/2000/svg" xmlns:xlink="http://www.w3.org/1999/xlink">
<g id="graph0" class="graph" transform="scale(1 1) rotate(0) translate(4 321)">
<title>%3</title>
<!-- 1 -->
<g id="node1" class="node">
<title>1</title>
<polygon fill="#ff0100" stroke="#ff0100" points="700.5,-317 650.5,-317 650.5,-276 700.5,-276 700.5,-317"/>
<text text-anchor="middle" x="675.5" y="-305" font-family="Arial" font-size="10.00" fill="#ffffff">main</text>
<text text-anchor="middle" x="675.5" y="-294" font-family="Arial" font-size="10.00" fill="#ffffff">99.93%</text>
<text text-anchor="middle" x="675.5" y="-283" font-family="Arial" font-size="10.00" fill="#ffffff">(0.00%)</text>
</g>
<!-- 2 -->
<g id="node2" class="node">
<title>2</title>
<polygon fill="#fe0700" stroke="#fe0700" points="589.5,-236 469.5,-236 469.5,-184 589.5,-184 589.5,-236"/>
<text text-anchor="middle" x="529.5" y="-224" font-family="Arial" font-size="10.00" fill="#ffffff">computeBackProjection</text>
<text text-anchor="middle" x="529.5" y="-213" font-family="Arial" font-size="10.00" fill="#ffffff">99.29%</text>
<text text-anchor="middle" x="529.5" y="-202" font-family="Arial" font-size="10.00" fill="#ffffff">(0.51%)</text>
<text text-anchor="middle" x="529.5" y="-191" font-family="Arial" font-size="10.00" fill="#ffffff">12×</text>
</g>
<!-- 1&#45;&gt;2 -->
<g id="edge1" class="edge">
<title>1&#45;&gt;2</title>
<path fill="none" stroke="#fe0700" stroke-width="3.97" d="M650.31,-284.45C639.43,-279.44 626.67,-273.25 615.5,-267 601.73,-259.29 587.19,-250.21 574.06,-241.63"/>
<polygon fill="#fe0700" stroke="#fe0700" stroke-width="3.97" points="575.93,-238.67 565.66,-236.08 572.08,-244.52 575.93,-238.67"/>
<text text-anchor="middle" x="632.5" y="-259" font-family="Arial" font-size="10.00" fill="#fe0700">99.29%</text>
<text text-anchor="middle" x="632.5" y="-248" font-family="Arial" font-size="10.00" fill="#fe0700">12×</text>
</g>
<!-- 7 -->
<g id="node3" class="node">
<title>7</title>
<polygon fill="#0d0f73" stroke="#0d0f73" points="668.5,-236 598.5,-236 598.5,-184 668.5,-184 668.5,-236"/>
<text text-anchor="middle" x="633.5" y="-224" font-family="Arial" font-size="10.00" fill="#ffffff">writeVolume</text>
<text text-anchor="middle" x="633.5" y="-213" font-family="Arial" font-size="10.00" fill="#ffffff">0.55%</text>
<text text-anchor="middle" x="633.5" y="-202" font-family="Arial" font-size="10.00" fill="#ffffff">(0.55%)</text>
<text text-anchor="middle" x="633.5" y="-191" font-family="Arial" font-size="10.00" fill="#ffffff">1×</text>
</g>
<!-- 1&#45;&gt;7 -->
<g id="edge2" class="edge">
<title>1&#45;&gt;7</title>
<path fill="none" stroke="#0d0f73" stroke-width="0.5" d="M665.76,-275.9C660.4,-265.12 653.65,-251.54 647.71,-239.59"/>
<polygon fill="#0d0f73" stroke="#0d0f73" stroke-width="0.5" points="648.71,-238.86 646.06,-236.27 646.52,-239.95 648.71,-238.86"/>
<text text-anchor="middle" x="675.5" y="-259" font-family="Arial" font-size="10.00" fill="#0d0f73">0.55%</text>
<text text-anchor="middle" x="675.5" y="-248" font-family="Arial" font-size="10.00" fill="#0d0f73">1×</text>
</g>
<!-- 13 -->
<g id="node4" class="node">
<title>13</title>
<polygon fill="#0d0d73" stroke="#0d0d73" points="757,-236 678,-236 678,-184 757,-184 757,-236"/>
<text text-anchor="middle" x="717.5" y="-224" font-family="Arial" font-size="10.00" fill="#ffffff">readProjection</text>
<text text-anchor="middle" x="717.5" y="-213" font-family="Arial" font-size="10.00" fill="#ffffff">0.09%</text>
<text text-anchor="middle" x="717.5" y="-202" font-family="Arial" font-size="10.00" fill="#ffffff">(0.09%)</text>
<text text-anchor="middle" x="717.5" y="-191" font-family="Arial" font-size="10.00" fill="#ffffff">14×</text>
</g>
<!-- 1&#45;&gt;13 -->
<g id="edge3" class="edge">
<title>1&#45;&gt;13</title>
<path fill="none" stroke="#0d0d73" stroke-width="0.5" d="M686.72,-275.98C688.36,-272.99 690,-269.93 691.5,-267 696.07,-258.08 700.77,-248.2 704.89,-239.26"/>
<polygon fill="#0d0d73" stroke="#0d0d73" stroke-width="0.5" points="706.04,-239.7 706.39,-236.01 703.81,-238.68 706.04,-239.7"/>
<text text-anchor="middle" x="716.5" y="-259" font-family="Arial" font-size="10.00" fill="#0d0d73">0.09%</text>
<text text-anchor="middle" x="716.5" y="-248" font-family="Arial" font-size="10.00" fill="#0d0d73">14×</text>
</g>
<!-- 18 -->
<g id="node5" class="node">
<title>18</title>
<polygon fill="#0d0d73" stroke="#0d0d73" points="823.5,-236 765.5,-236 765.5,-184 823.5,-184 823.5,-236"/>
<text text-anchor="middle" x="794.5" y="-224" font-family="Arial" font-size="10.00" fill="#ffffff">initTables</text>
<text text-anchor="middle" x="794.5" y="-213" font-family="Arial" font-size="10.00" fill="#ffffff">0.00%</text>
<text text-anchor="middle" x="794.5" y="-202" font-family="Arial" font-size="10.00" fill="#ffffff">(0.00%)</text>
<text text-anchor="middle" x="794.5" y="-191" font-family="Arial" font-size="10.00" fill="#ffffff">1×</text>
</g>
<!-- 1&#45;&gt;18 -->
<g id="edge4" class="edge">
<title>1&#45;&gt;18</title>
<path fill="none" stroke="#0d0d73" stroke-width="0.5" d="M700.55,-278.05C701.87,-277.32 703.19,-276.64 704.5,-276 716.26,-270.3 721.17,-273.53 732.5,-267 745.59,-259.46 758.29,-248.78 768.76,-238.77"/>
<polygon fill="#0d0d73" stroke="#0d0d73" stroke-width="0.5" points="769.71,-239.55 771.37,-236.24 768,-237.79 769.71,-239.55"/>
<text text-anchor="middle" x="775.5" y="-259" font-family="Arial" font-size="10.00" fill="#0d0d73">0.00%</text>
<text text-anchor="middle" x="775.5" y="-248" font-family="Arial" font-size="10.00" fill="#0d0d73">1×</text>
</g>
<!-- 3 -->
<g id="node6" class="node">
<title>3</title>
<polygon fill="#83cc07" stroke="#83cc07" points="101,-144 0,-144 0,-92 101,-92 101,-144"/>
<text text-anchor="middle" x="50.5" y="-132" font-family="Arial" font-size="10.00" fill="#ffffff">computeAbsorption</text>
<text text-anchor="middle" x="50.5" y="-121" font-family="Arial" font-size="10.00" fill="#ffffff">65.76%</text>
<text text-anchor="middle" x="50.5" y="-110" font-family="Arial" font-size="10.00" fill="#ffffff">(65.76%)</text>
<text text-anchor="middle" x="50.5" y="-99" font-family="Arial" font-size="10.00" fill="#ffffff">9020369×</text>
</g>
<!-- 2&#45;&gt;3 -->
<g id="edge5" class="edge">
<title>2&#45;&gt;3</title>
<path fill="none" stroke="#83cc07" stroke-width="2.63" d="M469.4,-209.76C396.62,-209.23 270.92,-203.63 167.5,-175 144.69,-168.69 120.89,-158.12 100.76,-147.85"/>
<polygon fill="#83cc07" stroke="#83cc07" stroke-width="2.63" points="102.01,-145.31 93.52,-144.1 99.4,-150.34 102.01,-145.31"/>
<text text-anchor="middle" x="189" y="-167" font-family="Arial" font-size="10.00" fill="#83cc07">65.76%</text>
<text text-anchor="middle" x="189" y="-156" font-family="Arial" font-size="10.00" fill="#83cc07">9020369×</text>
</g>
<!-- 4 -->
<g id="node7" class="node">
<title>4</title>
<polygon fill="#0d4682" stroke="#0d4682" points="210.5,-144 110.5,-144 110.5,-92 210.5,-92 210.5,-144"/>
<text text-anchor="middle" x="160.5" y="-132" font-family="Arial" font-size="10.00" fill="#ffffff">mergeIntersections</text>
<text text-anchor="middle" x="160.5" y="-121" font-family="Arial" font-size="10.00" fill="#ffffff">12.13%</text>
<text text-anchor="middle" x="160.5" y="-110" font-family="Arial" font-size="10.00" fill="#ffffff">(12.13%)</text>
<text text-anchor="middle" x="160.5" y="-99" font-family="Arial" font-size="10.00" fill="#ffffff">8851686×</text>
</g>
<!-- 2&#45;&gt;4 -->
<g id="edge6" class="edge">
<title>2&#45;&gt;4</title>
<path fill="none" stroke="#0d4682" stroke-width="0.5" d="M469.41,-208.53C412.83,-206.47 326.4,-199.13 255.5,-175 235.62,-168.23 215.34,-156.99 198.64,-146.34"/>
<polygon fill="#0d4682" stroke="#0d4682" stroke-width="0.5" points="198.96,-145.08 195.35,-144.22 197.63,-147.14 198.96,-145.08"/>
<text text-anchor="middle" x="277" y="-167" font-family="Arial" font-size="10.00" fill="#0d4682">12.13%</text>
<text text-anchor="middle" x="277" y="-156" font-family="Arial" font-size="10.00" fill="#0d4682">8851686×</text>
</g>
<!-- 5 -->
<g id="node8" class="node">
<title>5</title>
<polygon fill="#0d4081" stroke="#0d4081" points="295.5,-144 219.5,-144 219.5,-92 295.5,-92 295.5,-144"/>
<text text-anchor="middle" x="257.5" y="-132" font-family="Arial" font-size="10.00" fill="#ffffff">isArraySorted</text>
<text text-anchor="middle" x="257.5" y="-121" font-family="Arial" font-size="10.00" fill="#ffffff">10.97%</text>
<text text-anchor="middle" x="257.5" y="-110" font-family="Arial" font-size="10.00" fill="#ffffff">(10.97%)</text>
<text text-anchor="middle" x="257.5" y="-99" font-family="Arial" font-size="10.00" fill="#ffffff">36059430×</text>
</g>
<!-- 2&#45;&gt;5 -->
<g id="edge7" class="edge">
<title>2&#45;&gt;5</title>
<path fill="none" stroke="#0d4081" stroke-width="0.5" d="M469.32,-205.25C430.24,-201.18 378.89,-192.7 336.5,-175 319.77,-168.01 303.12,-156.98 289.44,-146.54"/>
<polygon fill="#0d4081" stroke="#0d4081" stroke-width="0.5" points="289.91,-145.35 286.39,-144.18 288.41,-147.29 289.91,-145.35"/>
<text text-anchor="middle" x="361" y="-167" font-family="Arial" font-size="10.00" fill="#0d4081">10.97%</text>
<text text-anchor="middle" x="361" y="-156" font-family="Arial" font-size="10.00" fill="#0d4081">36059430×</text>
</g>
<!-- 6 -->
<g id="node9" class="node">
<title>6</title>
<polygon fill="#0d377f" stroke="#0d377f" points="402.5,-144 304.5,-144 304.5,-92 402.5,-92 402.5,-144"/>
<text text-anchor="middle" x="353.5" y="-132" font-family="Arial" font-size="10.00" fill="#ffffff">getAllIntersections</text>
<text text-anchor="middle" x="353.5" y="-121" font-family="Arial" font-size="10.00" fill="#ffffff">9.20%</text>
<text text-anchor="middle" x="353.5" y="-110" font-family="Arial" font-size="10.00" fill="#ffffff">(9.19%)</text>
<text text-anchor="middle" x="353.5" y="-99" font-family="Arial" font-size="10.00" fill="#ffffff">8562291×</text>
</g>
<!-- 2&#45;&gt;6 -->
<g id="edge8" class="edge">
<title>2&#45;&gt;6</title>
<path fill="none" stroke="#0d377f" stroke-width="0.5" d="M469.47,-195.85C452.08,-190.71 433.49,-183.88 417.5,-175 403.93,-167.47 390.72,-156.68 379.86,-146.59"/>
<polygon fill="#0d377f" stroke="#0d377f" stroke-width="0.5" points="380.53,-145.54 377.15,-144.03 378.86,-147.33 380.53,-145.54"/>
<text text-anchor="middle" x="439" y="-167" font-family="Arial" font-size="10.00" fill="#0d377f">9.20%</text>
<text text-anchor="middle" x="439" y="-156" font-family="Arial" font-size="10.00" fill="#0d377f">8562291×</text>
</g>
<!-- 8 -->
<g id="node10" class="node">
<title>8</title>
<polygon fill="#0d0d73" stroke="#0d0d73" points="477,-144 412,-144 412,-92 477,-92 477,-144"/>
<text text-anchor="middle" x="444.5" y="-132" font-family="Arial" font-size="10.00" fill="#ffffff">getAMax</text>
<text text-anchor="middle" x="444.5" y="-121" font-family="Arial" font-size="10.00" fill="#ffffff">0.16%</text>
<text text-anchor="middle" x="444.5" y="-110" font-family="Arial" font-size="10.00" fill="#ffffff">(0.16%)</text>
<text text-anchor="middle" x="444.5" y="-99" font-family="Arial" font-size="10.00" fill="#ffffff">17434500×</text>
</g>
<!-- 2&#45;&gt;8 -->
<g id="edge9" class="edge">
<title>2&#45;&gt;8</title>
<path fill="none" stroke="#0d0d73" stroke-width="0.5" d="M488.14,-183.79C484.72,-181.02 481.45,-178.07 478.5,-175 470.79,-166.96 464,-156.87 458.56,-147.48"/>
<polygon fill="#0d0d73" stroke="#0d0d73" stroke-width="0.5" points="459.41,-146.49 456.61,-144.05 457.28,-147.7 459.41,-146.49"/>
<text text-anchor="middle" x="503" y="-167" font-family="Arial" font-size="10.00" fill="#0d0d73">0.16%</text>
<text text-anchor="middle" x="503" y="-156" font-family="Arial" font-size="10.00" fill="#0d0d73">17434500×</text>
</g>
<!-- 9 -->
<g id="node11" class="node">
<title>9</title>
<polygon fill="#0d0d73" stroke="#0d0d73" points="573,-144 486,-144 486,-92 573,-92 573,-144"/>
<text text-anchor="middle" x="529.5" y="-132" font-family="Arial" font-size="10.00" fill="#ffffff">getPixelPosition</text>
<text text-anchor="middle" x="529.5" y="-121" font-family="Arial" font-size="10.00" fill="#ffffff">0.16%</text>
<text text-anchor="middle" x="529.5" y="-110" font-family="Arial" font-size="10.00" fill="#ffffff">(0.16%)</text>
<text text-anchor="middle" x="529.5" y="-99" font-family="Arial" font-size="10.00" fill="#ffffff">17249054×</text>
</g>
<!-- 2&#45;&gt;9 -->
<g id="edge10" class="edge">
<title>2&#45;&gt;9</title>
<path fill="none" stroke="#0d0d73" stroke-width="0.5" d="M529.5,-183.93C529.5,-172.71 529.5,-159.42 529.5,-147.8"/>
<polygon fill="#0d0d73" stroke="#0d0d73" stroke-width="0.5" points="530.73,-147.75 529.5,-144.25 528.28,-147.75 530.73,-147.75"/>
<text text-anchor="middle" x="554" y="-167" font-family="Arial" font-size="10.00" fill="#0d0d73">0.16%</text>
<text text-anchor="middle" x="554" y="-156" font-family="Arial" font-size="10.00" fill="#0d0d73">17249054×</text>
</g>
<!-- 10 -->
<g id="node12" class="node">
<title>10</title>
<polygon fill="#0d0d73" stroke="#0d0d73" points="693,-144 582,-144 582,-92 693,-92 693,-144"/>
<text text-anchor="middle" x="637.5" y="-132" font-family="Arial" font-size="10.00" fill="#ffffff">getSidesIntersections</text>
<text text-anchor="middle" x="637.5" y="-121" font-family="Arial" font-size="10.00" fill="#ffffff">0.12%</text>
<text text-anchor="middle" x="637.5" y="-110" font-family="Arial" font-size="10.00" fill="#ffffff">(0.12%)</text>
<text text-anchor="middle" x="637.5" y="-99" font-family="Arial" font-size="10.00" fill="#ffffff">17123377×</text>
</g>
<!-- 2&#45;&gt;10 -->
<g id="edge11" class="edge">
<title>2&#45;&gt;10</title>
<path fill="none" stroke="#0d0d73" stroke-width="0.5" d="M568.75,-183.94C572.8,-181.03 576.78,-178.02 580.5,-175 591.04,-166.44 601.85,-156.24 611.19,-146.9"/>
<polygon fill="#0d0d73" stroke="#0d0d73" stroke-width="0.5" points="612.44,-147.38 614.03,-144.04 610.7,-145.66 612.44,-147.38"/>
<text text-anchor="middle" x="630" y="-167" font-family="Arial" font-size="10.00" fill="#0d0d73">0.12%</text>
<text text-anchor="middle" x="630" y="-156" font-family="Arial" font-size="10.00" fill="#0d0d73">17123377×</text>
</g>
<!-- 11 -->
<g id="node13" class="node">
<title>11</title>
<polygon fill="#0d0d73" stroke="#0d0d73" points="767,-144 702,-144 702,-92 767,-92 767,-144"/>
<text text-anchor="middle" x="734.5" y="-132" font-family="Arial" font-size="10.00" fill="#ffffff">getAMin</text>
<text text-anchor="middle" x="734.5" y="-121" font-family="Arial" font-size="10.00" fill="#ffffff">0.11%</text>
<text text-anchor="middle" x="734.5" y="-110" font-family="Arial" font-size="10.00" fill="#ffffff">(0.11%)</text>
<text text-anchor="middle" x="734.5" y="-99" font-family="Arial" font-size="10.00" fill="#ffffff">17080310×</text>
</g>
<!-- 2&#45;&gt;11 -->
<g id="edge12" class="edge">
<title>2&#45;&gt;11</title>
<path fill="none" stroke="#0d0d73" stroke-width="0.5" d="M589.67,-185.05C590.95,-184.68 592.23,-184.33 593.5,-184 620.85,-176.81 630.26,-185.55 656.5,-175 673.32,-168.24 689.93,-157.11 703.47,-146.55"/>
<polygon fill="#0d0d73" stroke="#0d0d73" stroke-width="0.5" points="704.5,-147.3 706.49,-144.17 702.98,-145.37 704.5,-147.3"/>
<text text-anchor="middle" x="718" y="-167" font-family="Arial" font-size="10.00" fill="#0d0d73">0.11%</text>
<text text-anchor="middle" x="718" y="-156" font-family="Arial" font-size="10.00" fill="#0d0d73">17080310×</text>
</g>
<!-- 12 -->
<g id="node14" class="node">
<title>12</title>
<polygon fill="#0d0d73" stroke="#0d0d73" points="870.5,-144 776.5,-144 776.5,-92 870.5,-92 870.5,-144"/>
<text text-anchor="middle" x="823.5" y="-132" font-family="Arial" font-size="10.00" fill="#ffffff">getPlanesRanges</text>
<text text-anchor="middle" x="823.5" y="-121" font-family="Arial" font-size="10.00" fill="#ffffff">0.11%</text>
<text text-anchor="middle" x="823.5" y="-110" font-family="Arial" font-size="10.00" fill="#ffffff">(0.11%)</text>
<text text-anchor="middle" x="823.5" y="-99" font-family="Arial" font-size="10.00" fill="#ffffff">9208744×</text>
</g>
<!-- 2&#45;&gt;12 -->
<g id="edge13" class="edge">
<title>2&#45;&gt;12</title>
<path fill="none" stroke="#0d0d73" stroke-width="0.5" d="M589.63,-184.91C590.93,-184.58 592.22,-184.28 593.5,-184 626.33,-176.8 712.79,-186.15 744.5,-175 762.05,-168.83 779.18,-157.54 792.98,-146.7"/>
<polygon fill="#0d0d73" stroke="#0d0d73" stroke-width="0.5" points="794.08,-147.39 796.06,-144.25 792.56,-145.47 794.08,-147.39"/>
<text text-anchor="middle" x="805" y="-167" font-family="Arial" font-size="10.00" fill="#0d0d73">0.11%</text>
<text text-anchor="middle" x="805" y="-156" font-family="Arial" font-size="10.00" fill="#0d0d73">9208744×</text>
</g>
<!-- 15 -->
<g id="node15" class="node">
<title>15</title>
<polygon fill="#0d0d73" stroke="#0d0d73" points="961.5,-144 879.5,-144 879.5,-92 961.5,-92 961.5,-144"/>
<text text-anchor="middle" x="920.5" y="-132" font-family="Arial" font-size="10.00" fill="#ffffff">getParallelAxis</text>
<text text-anchor="middle" x="920.5" y="-121" font-family="Arial" font-size="10.00" fill="#ffffff">0.05%</text>
<text text-anchor="middle" x="920.5" y="-110" font-family="Arial" font-size="10.00" fill="#ffffff">(0.05%)</text>
<text text-anchor="middle" x="920.5" y="-99" font-family="Arial" font-size="10.00" fill="#ffffff">17081851×</text>
</g>
<!-- 2&#45;&gt;15 -->
<g id="edge14" class="edge">
<title>2&#45;&gt;15</title>
<path fill="none" stroke="#0d0d73" stroke-width="0.5" d="M589.63,-184.87C590.92,-184.56 592.22,-184.27 593.5,-184 644.66,-173.34 778.46,-190.07 828.5,-175 848.64,-168.93 868.85,-157.38 885.17,-146.34"/>
<polygon fill="#0d0d73" stroke="#0d0d73" stroke-width="0.5" points="886.19,-147.13 888.38,-144.14 884.8,-145.11 886.19,-147.13"/>
<text text-anchor="middle" x="898" y="-167" font-family="Arial" font-size="10.00" fill="#0d0d73">0.05%</text>
<text text-anchor="middle" x="898" y="-156" font-family="Arial" font-size="10.00" fill="#0d0d73">17081851×</text>
</g>
<!-- 17 -->
<g id="node16" class="node">
<title>17</title>
<polygon fill="#0d0d73" stroke="#0d0d73" points="1066.5,-144 970.5,-144 970.5,-92 1066.5,-92 1066.5,-144"/>
<text text-anchor="middle" x="1018.5" y="-132" font-family="Arial" font-size="10.00" fill="#ffffff">getSourcePosition</text>
<text text-anchor="middle" x="1018.5" y="-121" font-family="Arial" font-size="10.00" fill="#ffffff">0.02%</text>
<text text-anchor="middle" x="1018.5" y="-110" font-family="Arial" font-size="10.00" fill="#ffffff">(0.02%)</text>
<text text-anchor="middle" x="1018.5" y="-99" font-family="Arial" font-size="10.00" fill="#ffffff">11×</text>
</g>
<!-- 2&#45;&gt;17 -->
<g id="edge15" class="edge">
<title>2&#45;&gt;17</title>
<path fill="none" stroke="#0d0d73" stroke-width="0.5" d="M589.62,-184.85C590.92,-184.54 592.21,-184.26 593.5,-184 665.62,-169.4 853.83,-195.49 924.5,-175 945.02,-169.05 965.66,-157.51 982.35,-146.45"/>
<polygon fill="#0d0d73" stroke="#0d0d73" stroke-width="0.5" points="983.41,-147.21 985.64,-144.25 982.05,-145.18 983.41,-147.21"/>
<text text-anchor="middle" x="983.5" y="-167" font-family="Arial" font-size="10.00" fill="#0d0d73">0.02%</text>
<text text-anchor="middle" x="983.5" y="-156" font-family="Arial" font-size="10.00" fill="#0d0d73">11×</text>
</g>
<!-- 16 -->
<g id="node17" class="node">
<title>16</title>
<polygon fill="#0d0d73" stroke="#0d0d73" points="398.5,-52 308.5,-52 308.5,0 398.5,0 398.5,-52"/>
<text text-anchor="middle" x="353.5" y="-40" font-family="Arial" font-size="10.00" fill="#ffffff">getPlanePosition</text>
<text text-anchor="middle" x="353.5" y="-29" font-family="Arial" font-size="10.00" fill="#ffffff">0.02%</text>
<text text-anchor="middle" x="353.5" y="-18" font-family="Arial" font-size="10.00" fill="#ffffff">(0.02%)</text>
<text text-anchor="middle" x="353.5" y="-7" font-family="Arial" font-size="10.00" fill="#ffffff">25944368×</text>
</g>
<!-- 6&#45;&gt;16 -->
<g id="edge16" class="edge">
<title>6&#45;&gt;16</title>
<path fill="none" stroke="#0d0d73" stroke-width="0.5" d="M353.5,-91.93C353.5,-80.71 353.5,-67.42 353.5,-55.8"/>
<polygon fill="#0d0d73" stroke="#0d0d73" stroke-width="0.5" points="354.73,-55.75 353.5,-52.25 352.28,-55.75 354.73,-55.75"/>
<text text-anchor="middle" x="378" y="-75" font-family="Arial" font-size="10.00" fill="#0d0d73">0.02%</text>
<text text-anchor="middle" x="378" y="-64" font-family="Arial" font-size="10.00" fill="#0d0d73">25944368×</text>
</g>
<!-- 14 -->
<g id="node18" class="node">
<title>14</title>
<polygon fill="#0d0d73" stroke="#0d0d73" points="759.5,-317 709.5,-317 709.5,-276 759.5,-276 759.5,-317"/>
<text text-anchor="middle" x="734.5" y="-305" font-family="Arial" font-size="10.00" fill="#ffffff">_init</text>
<text text-anchor="middle" x="734.5" y="-294" font-family="Arial" font-size="10.00" fill="#ffffff">0.07%</text>
<text text-anchor="middle" x="734.5" y="-283" font-family="Arial" font-size="10.00" fill="#ffffff">(0.07%)</text>
</g>
</g>
</svg>
